M48
;DRILL file {KiCad 5.0.2+dfsg1-1~bpo9+1} date Sun 03 Feb 2019 02:50:59 PM CET
;FORMAT={-:-/ absolute / inch / decimal}
FMAT,2
INCH,TZ
T1C0.0157
T2C0.0315
T3C0.0354
T4C0.0394
T5C0.0492
T6C0.0512
T7C0.0551
T8C0.0591
%
G90
G05
T1
X8.376Y-4.5472
X8.3858Y-3.6909
X8.4055Y-4.5177
X8.4055Y-4.8524
X8.4547Y-4.5177
X8.5138Y-3.3268
X8.5138Y-4.5079
X8.5335Y-4.7047
X8.5728Y-3.3957
X8.5728Y-3.5039
X8.5728Y-3.8091
X8.6319Y-4.5571
X8.6909Y-2.7657
X8.7106Y-4.4685
X8.7598Y-4.6358
X8.7795Y-3.937
X8.8676Y-3.8391
X8.8681Y-3.3366
X8.9567Y-4.1929
X8.9862Y-3.8484
X9.0354Y-4.3504
T2
X9.8425Y-5.3642
X9.8976Y-5.0689
T3
X8.4256Y-5.1028
X8.4256Y-5.8028
X8.6256Y-5.8028
X9.4256Y-5.1028
X9.6256Y-5.1028
T4
X8.3858Y-2.7559
X8.3858Y-2.8559
X8.3858Y-2.9559
X8.3858Y-3.0559
X8.3858Y-3.1559
X8.3858Y-3.2559
X8.3858Y-3.3559
T5
X10.1535Y-5.0394
X10.1535Y-5.2362
X10.1535Y-5.4331
X10.1535Y-5.6299
X10.1535Y-5.8268
X10.0984Y-2.8346
X10.0984Y-3.0315
X10.1398Y-3.8917
X10.1398Y-4.0886
T6
X9.3209Y-4.7244
X10.2067Y-4.7244
T7
X9.1929Y-2.9508
X9.2717Y-2.7146
X9.2717Y-3.187
X9.752Y-2.7146
X9.752Y-3.187
T3
X8.5965Y-3.3169G85X8.6319Y-3.3169
G05
X8.5965Y-3.6319G85X8.6319Y-3.6319
G05
X8.8524Y-4.1437G85X8.8878Y-4.1437
G05
X8.8524Y-4.4587G85X8.8878Y-4.4587
G05
X8.8524Y-3.7303G85X8.8878Y-3.7303
G05
X8.8524Y-4.0453G85X8.8878Y-4.0453
G05
T8
X9.3602Y-3.626G85X9.3602Y-3.6378
G05
X9.5472Y-3.311G85X9.5472Y-3.3228
G05
X9.6161Y-4.4528G85X9.6161Y-4.4646
G05
X9.8031Y-4.1378G85X9.8031Y-4.1496
G05
X9.6161Y-4.0394G85X9.6161Y-4.0512
G05
X9.8031Y-3.7244G85X9.8031Y-3.7362
G05
T0
M30
