G04 #@! TF.GenerationSoftware,KiCad,Pcbnew,5.0.2+dfsg1-1~bpo9+1*
G04 #@! TF.CreationDate,2019-02-03T14:49:37+01:00*
G04 #@! TF.ProjectId,rollershutter-light-control,726f6c6c-6572-4736-9875-747465722d6c,rev?*
G04 #@! TF.SameCoordinates,Original*
G04 #@! TF.FileFunction,Paste,Bot*
G04 #@! TF.FilePolarity,Positive*
%FSLAX46Y46*%
G04 Gerber Fmt 4.6, Leading zero omitted, Abs format (unit mm)*
G04 Created by KiCad (PCBNEW 5.0.2+dfsg1-1~bpo9+1) date Sun 03 Feb 2019 02:49:37 PM CET*
%MOMM*%
%LPD*%
G01*
G04 APERTURE LIST*
%ADD10C,0.100000*%
%ADD11C,1.150000*%
G04 APERTURE END LIST*
D10*
G04 #@! TO.C,C1*
G36*
X223224505Y-113401204D02*
X223248773Y-113404804D01*
X223272572Y-113410765D01*
X223295671Y-113419030D01*
X223317850Y-113429520D01*
X223338893Y-113442132D01*
X223358599Y-113456747D01*
X223376777Y-113473223D01*
X223393253Y-113491401D01*
X223407868Y-113511107D01*
X223420480Y-113532150D01*
X223430970Y-113554329D01*
X223439235Y-113577428D01*
X223445196Y-113601227D01*
X223448796Y-113625495D01*
X223450000Y-113649999D01*
X223450000Y-114300001D01*
X223448796Y-114324505D01*
X223445196Y-114348773D01*
X223439235Y-114372572D01*
X223430970Y-114395671D01*
X223420480Y-114417850D01*
X223407868Y-114438893D01*
X223393253Y-114458599D01*
X223376777Y-114476777D01*
X223358599Y-114493253D01*
X223338893Y-114507868D01*
X223317850Y-114520480D01*
X223295671Y-114530970D01*
X223272572Y-114539235D01*
X223248773Y-114545196D01*
X223224505Y-114548796D01*
X223200001Y-114550000D01*
X222299999Y-114550000D01*
X222275495Y-114548796D01*
X222251227Y-114545196D01*
X222227428Y-114539235D01*
X222204329Y-114530970D01*
X222182150Y-114520480D01*
X222161107Y-114507868D01*
X222141401Y-114493253D01*
X222123223Y-114476777D01*
X222106747Y-114458599D01*
X222092132Y-114438893D01*
X222079520Y-114417850D01*
X222069030Y-114395671D01*
X222060765Y-114372572D01*
X222054804Y-114348773D01*
X222051204Y-114324505D01*
X222050000Y-114300001D01*
X222050000Y-113649999D01*
X222051204Y-113625495D01*
X222054804Y-113601227D01*
X222060765Y-113577428D01*
X222069030Y-113554329D01*
X222079520Y-113532150D01*
X222092132Y-113511107D01*
X222106747Y-113491401D01*
X222123223Y-113473223D01*
X222141401Y-113456747D01*
X222161107Y-113442132D01*
X222182150Y-113429520D01*
X222204329Y-113419030D01*
X222227428Y-113410765D01*
X222251227Y-113404804D01*
X222275495Y-113401204D01*
X222299999Y-113400000D01*
X223200001Y-113400000D01*
X223224505Y-113401204D01*
X223224505Y-113401204D01*
G37*
D11*
X222750000Y-113975000D03*
D10*
G36*
X223224505Y-115451204D02*
X223248773Y-115454804D01*
X223272572Y-115460765D01*
X223295671Y-115469030D01*
X223317850Y-115479520D01*
X223338893Y-115492132D01*
X223358599Y-115506747D01*
X223376777Y-115523223D01*
X223393253Y-115541401D01*
X223407868Y-115561107D01*
X223420480Y-115582150D01*
X223430970Y-115604329D01*
X223439235Y-115627428D01*
X223445196Y-115651227D01*
X223448796Y-115675495D01*
X223450000Y-115699999D01*
X223450000Y-116350001D01*
X223448796Y-116374505D01*
X223445196Y-116398773D01*
X223439235Y-116422572D01*
X223430970Y-116445671D01*
X223420480Y-116467850D01*
X223407868Y-116488893D01*
X223393253Y-116508599D01*
X223376777Y-116526777D01*
X223358599Y-116543253D01*
X223338893Y-116557868D01*
X223317850Y-116570480D01*
X223295671Y-116580970D01*
X223272572Y-116589235D01*
X223248773Y-116595196D01*
X223224505Y-116598796D01*
X223200001Y-116600000D01*
X222299999Y-116600000D01*
X222275495Y-116598796D01*
X222251227Y-116595196D01*
X222227428Y-116589235D01*
X222204329Y-116580970D01*
X222182150Y-116570480D01*
X222161107Y-116557868D01*
X222141401Y-116543253D01*
X222123223Y-116526777D01*
X222106747Y-116508599D01*
X222092132Y-116488893D01*
X222079520Y-116467850D01*
X222069030Y-116445671D01*
X222060765Y-116422572D01*
X222054804Y-116398773D01*
X222051204Y-116374505D01*
X222050000Y-116350001D01*
X222050000Y-115699999D01*
X222051204Y-115675495D01*
X222054804Y-115651227D01*
X222060765Y-115627428D01*
X222069030Y-115604329D01*
X222079520Y-115582150D01*
X222092132Y-115561107D01*
X222106747Y-115541401D01*
X222123223Y-115523223D01*
X222141401Y-115506747D01*
X222161107Y-115492132D01*
X222182150Y-115479520D01*
X222204329Y-115469030D01*
X222227428Y-115460765D01*
X222251227Y-115454804D01*
X222275495Y-115451204D01*
X222299999Y-115450000D01*
X223200001Y-115450000D01*
X223224505Y-115451204D01*
X223224505Y-115451204D01*
G37*
D11*
X222750000Y-116025000D03*
G04 #@! TD*
D10*
G04 #@! TO.C,R1*
G36*
X214574505Y-120301204D02*
X214598773Y-120304804D01*
X214622572Y-120310765D01*
X214645671Y-120319030D01*
X214667850Y-120329520D01*
X214688893Y-120342132D01*
X214708599Y-120356747D01*
X214726777Y-120373223D01*
X214743253Y-120391401D01*
X214757868Y-120411107D01*
X214770480Y-120432150D01*
X214780970Y-120454329D01*
X214789235Y-120477428D01*
X214795196Y-120501227D01*
X214798796Y-120525495D01*
X214800000Y-120549999D01*
X214800000Y-121450001D01*
X214798796Y-121474505D01*
X214795196Y-121498773D01*
X214789235Y-121522572D01*
X214780970Y-121545671D01*
X214770480Y-121567850D01*
X214757868Y-121588893D01*
X214743253Y-121608599D01*
X214726777Y-121626777D01*
X214708599Y-121643253D01*
X214688893Y-121657868D01*
X214667850Y-121670480D01*
X214645671Y-121680970D01*
X214622572Y-121689235D01*
X214598773Y-121695196D01*
X214574505Y-121698796D01*
X214550001Y-121700000D01*
X213899999Y-121700000D01*
X213875495Y-121698796D01*
X213851227Y-121695196D01*
X213827428Y-121689235D01*
X213804329Y-121680970D01*
X213782150Y-121670480D01*
X213761107Y-121657868D01*
X213741401Y-121643253D01*
X213723223Y-121626777D01*
X213706747Y-121608599D01*
X213692132Y-121588893D01*
X213679520Y-121567850D01*
X213669030Y-121545671D01*
X213660765Y-121522572D01*
X213654804Y-121498773D01*
X213651204Y-121474505D01*
X213650000Y-121450001D01*
X213650000Y-120549999D01*
X213651204Y-120525495D01*
X213654804Y-120501227D01*
X213660765Y-120477428D01*
X213669030Y-120454329D01*
X213679520Y-120432150D01*
X213692132Y-120411107D01*
X213706747Y-120391401D01*
X213723223Y-120373223D01*
X213741401Y-120356747D01*
X213761107Y-120342132D01*
X213782150Y-120329520D01*
X213804329Y-120319030D01*
X213827428Y-120310765D01*
X213851227Y-120304804D01*
X213875495Y-120301204D01*
X213899999Y-120300000D01*
X214550001Y-120300000D01*
X214574505Y-120301204D01*
X214574505Y-120301204D01*
G37*
D11*
X214225000Y-121000000D03*
D10*
G36*
X216624505Y-120301204D02*
X216648773Y-120304804D01*
X216672572Y-120310765D01*
X216695671Y-120319030D01*
X216717850Y-120329520D01*
X216738893Y-120342132D01*
X216758599Y-120356747D01*
X216776777Y-120373223D01*
X216793253Y-120391401D01*
X216807868Y-120411107D01*
X216820480Y-120432150D01*
X216830970Y-120454329D01*
X216839235Y-120477428D01*
X216845196Y-120501227D01*
X216848796Y-120525495D01*
X216850000Y-120549999D01*
X216850000Y-121450001D01*
X216848796Y-121474505D01*
X216845196Y-121498773D01*
X216839235Y-121522572D01*
X216830970Y-121545671D01*
X216820480Y-121567850D01*
X216807868Y-121588893D01*
X216793253Y-121608599D01*
X216776777Y-121626777D01*
X216758599Y-121643253D01*
X216738893Y-121657868D01*
X216717850Y-121670480D01*
X216695671Y-121680970D01*
X216672572Y-121689235D01*
X216648773Y-121695196D01*
X216624505Y-121698796D01*
X216600001Y-121700000D01*
X215949999Y-121700000D01*
X215925495Y-121698796D01*
X215901227Y-121695196D01*
X215877428Y-121689235D01*
X215854329Y-121680970D01*
X215832150Y-121670480D01*
X215811107Y-121657868D01*
X215791401Y-121643253D01*
X215773223Y-121626777D01*
X215756747Y-121608599D01*
X215742132Y-121588893D01*
X215729520Y-121567850D01*
X215719030Y-121545671D01*
X215710765Y-121522572D01*
X215704804Y-121498773D01*
X215701204Y-121474505D01*
X215700000Y-121450001D01*
X215700000Y-120549999D01*
X215701204Y-120525495D01*
X215704804Y-120501227D01*
X215710765Y-120477428D01*
X215719030Y-120454329D01*
X215729520Y-120432150D01*
X215742132Y-120411107D01*
X215756747Y-120391401D01*
X215773223Y-120373223D01*
X215791401Y-120356747D01*
X215811107Y-120342132D01*
X215832150Y-120329520D01*
X215854329Y-120319030D01*
X215877428Y-120310765D01*
X215901227Y-120304804D01*
X215925495Y-120301204D01*
X215949999Y-120300000D01*
X216600001Y-120300000D01*
X216624505Y-120301204D01*
X216624505Y-120301204D01*
G37*
D11*
X216275000Y-121000000D03*
G04 #@! TD*
M02*
