G04 #@! TF.GenerationSoftware,KiCad,Pcbnew,5.0.2+dfsg1-1~bpo9+1*
G04 #@! TF.CreationDate,2019-02-03T14:49:37+01:00*
G04 #@! TF.ProjectId,rollershutter-light-control,726f6c6c-6572-4736-9875-747465722d6c,rev?*
G04 #@! TF.SameCoordinates,Original*
G04 #@! TF.FileFunction,Copper,L2,Bot*
G04 #@! TF.FilePolarity,Positive*
%FSLAX46Y46*%
G04 Gerber Fmt 4.6, Leading zero omitted, Abs format (unit mm)*
G04 Created by KiCad (PCBNEW 5.0.2+dfsg1-1~bpo9+1) date Sun 03 Feb 2019 02:49:37 PM CET*
%MOMM*%
%LPD*%
G01*
G04 APERTURE LIST*
G04 #@! TA.AperFunction,ComponentPad*
%ADD10C,2.200000*%
G04 #@! TD*
G04 #@! TA.AperFunction,Conductor*
%ADD11C,0.100000*%
G04 #@! TD*
G04 #@! TA.AperFunction,SMDPad,CuDef*
%ADD12C,1.150000*%
G04 #@! TD*
G04 #@! TA.AperFunction,ComponentPad*
%ADD13O,1.524000X2.000000*%
G04 #@! TD*
G04 #@! TA.AperFunction,ComponentPad*
%ADD14O,1.700000X1.700000*%
G04 #@! TD*
G04 #@! TA.AperFunction,ComponentPad*
%ADD15R,1.700000X1.700000*%
G04 #@! TD*
G04 #@! TA.AperFunction,ComponentPad*
%ADD16C,3.000000*%
G04 #@! TD*
G04 #@! TA.AperFunction,ComponentPad*
%ADD17O,3.000000X2.000000*%
G04 #@! TD*
G04 #@! TA.AperFunction,ComponentPad*
%ADD18O,2.000000X1.300000*%
G04 #@! TD*
G04 #@! TA.AperFunction,ComponentPad*
%ADD19C,1.800000*%
G04 #@! TD*
G04 #@! TA.AperFunction,ComponentPad*
%ADD20O,2.000000X1.700000*%
G04 #@! TD*
G04 #@! TA.AperFunction,ViaPad*
%ADD21C,0.800000*%
G04 #@! TD*
G04 #@! TA.AperFunction,Conductor*
%ADD22C,3.000000*%
G04 #@! TD*
G04 #@! TA.AperFunction,Conductor*
%ADD23C,0.250000*%
G04 #@! TD*
G04 APERTURE END LIST*
D10*
G04 #@! TO.P,K4,14*
G04 #@! TO.N,Net-(J3-Pad2)*
X247700000Y-68950000D03*
G04 #@! TO.P,K4,A1*
G04 #@! TO.N,+5V*
X235500000Y-68950000D03*
G04 #@! TO.P,K4,A2*
G04 #@! TO.N,Net-(K4-PadA2)*
X235500000Y-80950000D03*
G04 #@! TO.P,K4,11*
G04 #@! TO.N,Net-(K1-Pad14)*
X233500000Y-74950000D03*
G04 #@! TO.P,K4,12*
G04 #@! TO.N,Net-(J3-Pad1)*
X247700000Y-80950000D03*
G04 #@! TD*
D11*
G04 #@! TO.N,GND*
G04 #@! TO.C,C1*
G36*
X223224505Y-113401204D02*
X223248773Y-113404804D01*
X223272572Y-113410765D01*
X223295671Y-113419030D01*
X223317850Y-113429520D01*
X223338893Y-113442132D01*
X223358599Y-113456747D01*
X223376777Y-113473223D01*
X223393253Y-113491401D01*
X223407868Y-113511107D01*
X223420480Y-113532150D01*
X223430970Y-113554329D01*
X223439235Y-113577428D01*
X223445196Y-113601227D01*
X223448796Y-113625495D01*
X223450000Y-113649999D01*
X223450000Y-114300001D01*
X223448796Y-114324505D01*
X223445196Y-114348773D01*
X223439235Y-114372572D01*
X223430970Y-114395671D01*
X223420480Y-114417850D01*
X223407868Y-114438893D01*
X223393253Y-114458599D01*
X223376777Y-114476777D01*
X223358599Y-114493253D01*
X223338893Y-114507868D01*
X223317850Y-114520480D01*
X223295671Y-114530970D01*
X223272572Y-114539235D01*
X223248773Y-114545196D01*
X223224505Y-114548796D01*
X223200001Y-114550000D01*
X222299999Y-114550000D01*
X222275495Y-114548796D01*
X222251227Y-114545196D01*
X222227428Y-114539235D01*
X222204329Y-114530970D01*
X222182150Y-114520480D01*
X222161107Y-114507868D01*
X222141401Y-114493253D01*
X222123223Y-114476777D01*
X222106747Y-114458599D01*
X222092132Y-114438893D01*
X222079520Y-114417850D01*
X222069030Y-114395671D01*
X222060765Y-114372572D01*
X222054804Y-114348773D01*
X222051204Y-114324505D01*
X222050000Y-114300001D01*
X222050000Y-113649999D01*
X222051204Y-113625495D01*
X222054804Y-113601227D01*
X222060765Y-113577428D01*
X222069030Y-113554329D01*
X222079520Y-113532150D01*
X222092132Y-113511107D01*
X222106747Y-113491401D01*
X222123223Y-113473223D01*
X222141401Y-113456747D01*
X222161107Y-113442132D01*
X222182150Y-113429520D01*
X222204329Y-113419030D01*
X222227428Y-113410765D01*
X222251227Y-113404804D01*
X222275495Y-113401204D01*
X222299999Y-113400000D01*
X223200001Y-113400000D01*
X223224505Y-113401204D01*
X223224505Y-113401204D01*
G37*
D12*
G04 #@! TD*
G04 #@! TO.P,C1,1*
G04 #@! TO.N,GND*
X222750000Y-113975000D03*
D11*
G04 #@! TO.N,+3V3*
G04 #@! TO.C,C1*
G36*
X223224505Y-115451204D02*
X223248773Y-115454804D01*
X223272572Y-115460765D01*
X223295671Y-115469030D01*
X223317850Y-115479520D01*
X223338893Y-115492132D01*
X223358599Y-115506747D01*
X223376777Y-115523223D01*
X223393253Y-115541401D01*
X223407868Y-115561107D01*
X223420480Y-115582150D01*
X223430970Y-115604329D01*
X223439235Y-115627428D01*
X223445196Y-115651227D01*
X223448796Y-115675495D01*
X223450000Y-115699999D01*
X223450000Y-116350001D01*
X223448796Y-116374505D01*
X223445196Y-116398773D01*
X223439235Y-116422572D01*
X223430970Y-116445671D01*
X223420480Y-116467850D01*
X223407868Y-116488893D01*
X223393253Y-116508599D01*
X223376777Y-116526777D01*
X223358599Y-116543253D01*
X223338893Y-116557868D01*
X223317850Y-116570480D01*
X223295671Y-116580970D01*
X223272572Y-116589235D01*
X223248773Y-116595196D01*
X223224505Y-116598796D01*
X223200001Y-116600000D01*
X222299999Y-116600000D01*
X222275495Y-116598796D01*
X222251227Y-116595196D01*
X222227428Y-116589235D01*
X222204329Y-116580970D01*
X222182150Y-116570480D01*
X222161107Y-116557868D01*
X222141401Y-116543253D01*
X222123223Y-116526777D01*
X222106747Y-116508599D01*
X222092132Y-116488893D01*
X222079520Y-116467850D01*
X222069030Y-116445671D01*
X222060765Y-116422572D01*
X222054804Y-116398773D01*
X222051204Y-116374505D01*
X222050000Y-116350001D01*
X222050000Y-115699999D01*
X222051204Y-115675495D01*
X222054804Y-115651227D01*
X222060765Y-115627428D01*
X222069030Y-115604329D01*
X222079520Y-115582150D01*
X222092132Y-115561107D01*
X222106747Y-115541401D01*
X222123223Y-115523223D01*
X222141401Y-115506747D01*
X222161107Y-115492132D01*
X222182150Y-115479520D01*
X222204329Y-115469030D01*
X222227428Y-115460765D01*
X222251227Y-115454804D01*
X222275495Y-115451204D01*
X222299999Y-115450000D01*
X223200001Y-115450000D01*
X223224505Y-115451204D01*
X223224505Y-115451204D01*
G37*
D12*
G04 #@! TD*
G04 #@! TO.P,C1,2*
G04 #@! TO.N,+3V3*
X222750000Y-116025000D03*
D13*
G04 #@! TO.P,PS1,16*
G04 #@! TO.N,+5V*
X219090000Y-147390000D03*
G04 #@! TO.P,PS1,14*
G04 #@! TO.N,GND*
X214010000Y-147390000D03*
G04 #@! TO.P,PS1,NC*
G04 #@! TO.N,N/C*
X214010000Y-129610000D03*
G04 #@! TO.P,PS1,3*
G04 #@! TO.N,Net-(J1-Pad1)*
X239410000Y-129610000D03*
G04 #@! TO.P,PS1,1*
G04 #@! TO.N,Net-(F1-Pad1)*
X244490000Y-129610000D03*
G04 #@! TD*
D14*
G04 #@! TO.P,J2,7*
G04 #@! TO.N,Net-(J2-Pad7)*
X213000000Y-85240000D03*
G04 #@! TO.P,J2,6*
G04 #@! TO.N,Net-(J2-Pad6)*
X213000000Y-82700000D03*
G04 #@! TO.P,J2,5*
G04 #@! TO.N,Net-(J2-Pad5)*
X213000000Y-80160000D03*
G04 #@! TO.P,J2,4*
G04 #@! TO.N,Net-(J2-Pad4)*
X213000000Y-77620000D03*
G04 #@! TO.P,J2,3*
G04 #@! TO.N,GND*
X213000000Y-75080000D03*
G04 #@! TO.P,J2,2*
G04 #@! TO.N,+5V*
X213000000Y-72540000D03*
D15*
G04 #@! TO.P,J2,1*
G04 #@! TO.N,+3V3*
X213000000Y-70000000D03*
G04 #@! TD*
D11*
G04 #@! TO.N,+3V3*
G04 #@! TO.C,R1*
G36*
X214574505Y-120301204D02*
X214598773Y-120304804D01*
X214622572Y-120310765D01*
X214645671Y-120319030D01*
X214667850Y-120329520D01*
X214688893Y-120342132D01*
X214708599Y-120356747D01*
X214726777Y-120373223D01*
X214743253Y-120391401D01*
X214757868Y-120411107D01*
X214770480Y-120432150D01*
X214780970Y-120454329D01*
X214789235Y-120477428D01*
X214795196Y-120501227D01*
X214798796Y-120525495D01*
X214800000Y-120549999D01*
X214800000Y-121450001D01*
X214798796Y-121474505D01*
X214795196Y-121498773D01*
X214789235Y-121522572D01*
X214780970Y-121545671D01*
X214770480Y-121567850D01*
X214757868Y-121588893D01*
X214743253Y-121608599D01*
X214726777Y-121626777D01*
X214708599Y-121643253D01*
X214688893Y-121657868D01*
X214667850Y-121670480D01*
X214645671Y-121680970D01*
X214622572Y-121689235D01*
X214598773Y-121695196D01*
X214574505Y-121698796D01*
X214550001Y-121700000D01*
X213899999Y-121700000D01*
X213875495Y-121698796D01*
X213851227Y-121695196D01*
X213827428Y-121689235D01*
X213804329Y-121680970D01*
X213782150Y-121670480D01*
X213761107Y-121657868D01*
X213741401Y-121643253D01*
X213723223Y-121626777D01*
X213706747Y-121608599D01*
X213692132Y-121588893D01*
X213679520Y-121567850D01*
X213669030Y-121545671D01*
X213660765Y-121522572D01*
X213654804Y-121498773D01*
X213651204Y-121474505D01*
X213650000Y-121450001D01*
X213650000Y-120549999D01*
X213651204Y-120525495D01*
X213654804Y-120501227D01*
X213660765Y-120477428D01*
X213669030Y-120454329D01*
X213679520Y-120432150D01*
X213692132Y-120411107D01*
X213706747Y-120391401D01*
X213723223Y-120373223D01*
X213741401Y-120356747D01*
X213761107Y-120342132D01*
X213782150Y-120329520D01*
X213804329Y-120319030D01*
X213827428Y-120310765D01*
X213851227Y-120304804D01*
X213875495Y-120301204D01*
X213899999Y-120300000D01*
X214550001Y-120300000D01*
X214574505Y-120301204D01*
X214574505Y-120301204D01*
G37*
D12*
G04 #@! TD*
G04 #@! TO.P,R1,2*
G04 #@! TO.N,+3V3*
X214225000Y-121000000D03*
D11*
G04 #@! TO.N,Net-(J2-Pad7)*
G04 #@! TO.C,R1*
G36*
X216624505Y-120301204D02*
X216648773Y-120304804D01*
X216672572Y-120310765D01*
X216695671Y-120319030D01*
X216717850Y-120329520D01*
X216738893Y-120342132D01*
X216758599Y-120356747D01*
X216776777Y-120373223D01*
X216793253Y-120391401D01*
X216807868Y-120411107D01*
X216820480Y-120432150D01*
X216830970Y-120454329D01*
X216839235Y-120477428D01*
X216845196Y-120501227D01*
X216848796Y-120525495D01*
X216850000Y-120549999D01*
X216850000Y-121450001D01*
X216848796Y-121474505D01*
X216845196Y-121498773D01*
X216839235Y-121522572D01*
X216830970Y-121545671D01*
X216820480Y-121567850D01*
X216807868Y-121588893D01*
X216793253Y-121608599D01*
X216776777Y-121626777D01*
X216758599Y-121643253D01*
X216738893Y-121657868D01*
X216717850Y-121670480D01*
X216695671Y-121680970D01*
X216672572Y-121689235D01*
X216648773Y-121695196D01*
X216624505Y-121698796D01*
X216600001Y-121700000D01*
X215949999Y-121700000D01*
X215925495Y-121698796D01*
X215901227Y-121695196D01*
X215877428Y-121689235D01*
X215854329Y-121680970D01*
X215832150Y-121670480D01*
X215811107Y-121657868D01*
X215791401Y-121643253D01*
X215773223Y-121626777D01*
X215756747Y-121608599D01*
X215742132Y-121588893D01*
X215729520Y-121567850D01*
X215719030Y-121545671D01*
X215710765Y-121522572D01*
X215704804Y-121498773D01*
X215701204Y-121474505D01*
X215700000Y-121450001D01*
X215700000Y-120549999D01*
X215701204Y-120525495D01*
X215704804Y-120501227D01*
X215710765Y-120477428D01*
X215719030Y-120454329D01*
X215729520Y-120432150D01*
X215742132Y-120411107D01*
X215756747Y-120391401D01*
X215773223Y-120373223D01*
X215791401Y-120356747D01*
X215811107Y-120342132D01*
X215832150Y-120329520D01*
X215854329Y-120319030D01*
X215877428Y-120310765D01*
X215901227Y-120304804D01*
X215925495Y-120301204D01*
X215949999Y-120300000D01*
X216600001Y-120300000D01*
X216624505Y-120301204D01*
X216624505Y-120301204D01*
G37*
D12*
G04 #@! TD*
G04 #@! TO.P,R1,1*
G04 #@! TO.N,Net-(J2-Pad7)*
X216275000Y-121000000D03*
D16*
G04 #@! TO.P,F1,2*
G04 #@! TO.N,L*
X259250000Y-120000000D03*
G04 #@! TO.P,F1,1*
G04 #@! TO.N,Net-(F1-Pad1)*
X236750000Y-120000000D03*
G04 #@! TD*
D17*
G04 #@! TO.P,K3,11*
G04 #@! TO.N,L*
X244250000Y-102750000D03*
D18*
G04 #@! TO.P,K3,A1*
G04 #@! TO.N,+5V*
X225300000Y-94750000D03*
G04 #@! TO.P,K3,A2*
G04 #@! TO.N,Net-(K3-PadA2)*
X225300000Y-102750000D03*
D17*
G04 #@! TO.P,K3,14*
G04 #@! TO.N,Net-(J4-Pad2)*
X249000000Y-94750000D03*
G04 #@! TD*
G04 #@! TO.P,K2,11*
G04 #@! TO.N,L*
X244250000Y-113250000D03*
D18*
G04 #@! TO.P,K2,A1*
G04 #@! TO.N,+5V*
X225300000Y-105250000D03*
G04 #@! TO.P,K2,A2*
G04 #@! TO.N,Net-(K2-PadA2)*
X225300000Y-113250000D03*
D17*
G04 #@! TO.P,K2,14*
G04 #@! TO.N,Net-(J4-Pad1)*
X249000000Y-105250000D03*
G04 #@! TD*
G04 #@! TO.P,K1,11*
G04 #@! TO.N,L*
X237750000Y-92250000D03*
D18*
G04 #@! TO.P,K1,A1*
G04 #@! TO.N,+5V*
X218800000Y-84250000D03*
G04 #@! TO.P,K1,A2*
G04 #@! TO.N,Net-(K1-PadA2)*
X218800000Y-92250000D03*
D17*
G04 #@! TO.P,K1,14*
G04 #@! TO.N,Net-(K1-Pad14)*
X242500000Y-84250000D03*
G04 #@! TD*
D19*
G04 #@! TO.P,RV1,2*
G04 #@! TO.N,L*
X251400000Y-128750000D03*
G04 #@! TO.P,RV1,1*
G04 #@! TO.N,Net-(J1-Pad1)*
X250000000Y-136250000D03*
G04 #@! TD*
D20*
G04 #@! TO.P,J4,1*
G04 #@! TO.N,Net-(J4-Pad1)*
X257550000Y-103850000D03*
G04 #@! TO.P,J4,2*
G04 #@! TO.N,Net-(J4-Pad2)*
X257550000Y-98850000D03*
G04 #@! TD*
G04 #@! TO.P,J3,1*
G04 #@! TO.N,Net-(J3-Pad1)*
X256500000Y-77000000D03*
G04 #@! TO.P,J3,2*
G04 #@! TO.N,Net-(J3-Pad2)*
X256500000Y-72000000D03*
G04 #@! TD*
G04 #@! TO.P,J1,1*
G04 #@! TO.N,Net-(J1-Pad1)*
X257900000Y-148000000D03*
G04 #@! TO.P,J1,2*
X257900000Y-143000000D03*
G04 #@! TO.P,J1,3*
X257900000Y-138000000D03*
G04 #@! TO.P,J1,4*
X257900000Y-133000000D03*
G04 #@! TO.P,J1,5*
G04 #@! TO.N,L*
X257900000Y-128000000D03*
G04 #@! TD*
D21*
G04 #@! TO.N,+3V3*
X222500000Y-117750000D03*
X213500000Y-123250000D03*
X227500000Y-106500000D03*
X225250000Y-84750000D03*
X220750000Y-70250000D03*
G04 #@! TO.N,Net-(J2-Pad6)*
X213500000Y-114750000D03*
X217750000Y-86250000D03*
X216250000Y-84500000D03*
G04 #@! TO.N,Net-(J2-Pad5)*
X212750000Y-115500000D03*
G04 #@! TO.N,Net-(J2-Pad7)*
X216750000Y-119500000D03*
X214750000Y-114750000D03*
X213000000Y-93750000D03*
G04 #@! TO.N,Net-(J2-Pad4)*
X216250000Y-114500000D03*
X217750000Y-89000000D03*
G04 #@! TO.N,Net-(U1-Pad15)*
X217750000Y-96750000D03*
X219250000Y-115750000D03*
G04 #@! TO.N,GND*
X221250000Y-113500000D03*
G04 #@! TO.N,Net-(K2-PadA2)*
X225237347Y-97512653D03*
X228250000Y-97750000D03*
X229500000Y-110500000D03*
G04 #@! TO.N,Net-(K4-PadA2)*
X223000000Y-100000000D03*
G04 #@! TD*
D22*
G04 #@! TO.N,Net-(J1-Pad1)*
X239410000Y-129610000D02*
X238890000Y-129610000D01*
X238890000Y-129610000D02*
X236750000Y-131750000D01*
X236750000Y-131750000D02*
X236750000Y-135750000D01*
X236750000Y-135750000D02*
X240750000Y-139750000D01*
X246500000Y-139750000D02*
X250000000Y-136250000D01*
X240750000Y-139750000D02*
X246500000Y-139750000D01*
X257900000Y-133100000D02*
X257900000Y-133000000D01*
X250000000Y-136250000D02*
X251272792Y-136250000D01*
X254500000Y-136500000D02*
X257900000Y-133100000D01*
X251272792Y-136250000D02*
X251522792Y-136500000D01*
X251522792Y-136500000D02*
X254500000Y-136500000D01*
X257900000Y-138000000D02*
X257900000Y-143000000D01*
X257900000Y-143000000D02*
X257900000Y-148000000D01*
X253900000Y-143000000D02*
X252900000Y-142000000D01*
X257900000Y-143000000D02*
X253900000Y-143000000D01*
X248750000Y-142000000D02*
X246500000Y-139750000D01*
X252900000Y-142000000D02*
X248750000Y-142000000D01*
G04 #@! TO.N,Net-(J3-Pad2)*
X256500000Y-72000000D02*
X255750000Y-72000000D01*
X255750000Y-72000000D02*
X252250000Y-68500000D01*
X251800000Y-68950000D02*
X247700000Y-68950000D01*
X252250000Y-68500000D02*
X251800000Y-68950000D01*
G04 #@! TO.N,Net-(J3-Pad1)*
X256500000Y-80850000D02*
X256500000Y-77000000D01*
X256400000Y-80950000D02*
X256500000Y-80850000D01*
X247700000Y-80950000D02*
X256400000Y-80950000D01*
G04 #@! TO.N,Net-(J4-Pad1)*
X257250000Y-104150000D02*
X257550000Y-103850000D01*
X257250000Y-105250000D02*
X257250000Y-104150000D01*
X249000000Y-105250000D02*
X257250000Y-105250000D01*
D23*
G04 #@! TO.N,+3V3*
X222750000Y-116025000D02*
X222750000Y-117000000D01*
X222500000Y-117250000D02*
X222500000Y-117750000D01*
X222750000Y-117000000D02*
X222500000Y-117250000D01*
X214225000Y-122525000D02*
X214225000Y-121000000D01*
X213500000Y-123250000D02*
X214225000Y-122525000D01*
X227500000Y-106500000D02*
X228750000Y-106500000D01*
X228750000Y-106500000D02*
X230000000Y-105250000D01*
X230000000Y-89500000D02*
X225250000Y-84750000D01*
X230000000Y-105250000D02*
X230000000Y-89500000D01*
X213250000Y-70250000D02*
X213000000Y-70000000D01*
X220750000Y-70250000D02*
X213250000Y-70250000D01*
G04 #@! TO.N,Net-(J2-Pad6)*
X213500000Y-114750000D02*
X212250000Y-113500000D01*
X212250000Y-113500000D02*
X212250000Y-108750000D01*
X212250000Y-108750000D02*
X212250000Y-93250000D01*
X212250000Y-93250000D02*
X213250000Y-92250000D01*
X217750000Y-87750000D02*
X217750000Y-86250000D01*
X213250000Y-92250000D02*
X217750000Y-87750000D01*
X214450000Y-82700000D02*
X213000000Y-82700000D01*
X216250000Y-84500000D02*
X214450000Y-82700000D01*
G04 #@! TO.N,Net-(J2-Pad5)*
X212750000Y-114934315D02*
X211500000Y-113684315D01*
X212750000Y-115500000D02*
X212750000Y-114934315D01*
X211500000Y-113684315D02*
X211500000Y-92750000D01*
X211500000Y-92750000D02*
X217000000Y-87250000D01*
X217000000Y-87250000D02*
X217000000Y-81500000D01*
X215660000Y-80160000D02*
X213000000Y-80160000D01*
X217000000Y-81500000D02*
X215660000Y-80160000D01*
G04 #@! TO.N,Net-(J2-Pad7)*
X216750000Y-120525000D02*
X216275000Y-121000000D01*
X216750000Y-119500000D02*
X216750000Y-120525000D01*
X214750000Y-114184315D02*
X213000000Y-112434315D01*
X214750000Y-114750000D02*
X214750000Y-114184315D01*
X213000000Y-112434315D02*
X213000000Y-93750000D01*
G04 #@! TO.N,Net-(J2-Pad4)*
X216250000Y-114500000D02*
X214000000Y-112250000D01*
X214000000Y-112250000D02*
X214250000Y-112000000D01*
X214250000Y-112000000D02*
X214250000Y-93000000D01*
X217750000Y-89500000D02*
X217750000Y-89000000D01*
X214250000Y-93000000D02*
X217750000Y-89500000D01*
G04 #@! TO.N,Net-(U1-Pad15)*
X219250000Y-98250000D02*
X219250000Y-115750000D01*
X217750000Y-96750000D02*
X219250000Y-98250000D01*
G04 #@! TO.N,GND*
X214010000Y-146140000D02*
X214010000Y-147390000D01*
X217750000Y-127000000D02*
X217750000Y-142400000D01*
X217750000Y-142400000D02*
X214010000Y-146140000D01*
X222750000Y-113975000D02*
X223525000Y-114750000D01*
X223525000Y-114750000D02*
X226000000Y-114750000D01*
X226000000Y-114750000D02*
X226000000Y-118750000D01*
X226000000Y-118750000D02*
X217750000Y-127000000D01*
X221725000Y-113975000D02*
X221250000Y-113500000D01*
X222750000Y-113975000D02*
X221725000Y-113975000D01*
G04 #@! TO.N,Net-(K2-PadA2)*
X228012653Y-97512653D02*
X228250000Y-97750000D01*
X225237347Y-97512653D02*
X228012653Y-97512653D01*
X225599990Y-113549990D02*
X225300000Y-113250000D01*
X226450010Y-113549990D02*
X225599990Y-113549990D01*
X229500000Y-110500000D02*
X226450010Y-113549990D01*
G04 #@! TO.N,Net-(K4-PadA2)*
X235500000Y-80950000D02*
X227300000Y-80950000D01*
X223000000Y-85250000D02*
X223000000Y-100000000D01*
X227300000Y-80950000D02*
X223000000Y-85250000D01*
G04 #@! TD*
M02*
