G04 #@! TF.GenerationSoftware,KiCad,Pcbnew,5.0.2+dfsg1-1~bpo9+1*
G04 #@! TF.CreationDate,2019-02-03T14:49:37+01:00*
G04 #@! TF.ProjectId,rollershutter-light-control,726f6c6c-6572-4736-9875-747465722d6c,rev?*
G04 #@! TF.SameCoordinates,Original*
G04 #@! TF.FileFunction,Soldermask,Bot*
G04 #@! TF.FilePolarity,Negative*
%FSLAX46Y46*%
G04 Gerber Fmt 4.6, Leading zero omitted, Abs format (unit mm)*
G04 Created by KiCad (PCBNEW 5.0.2+dfsg1-1~bpo9+1) date Sun 03 Feb 2019 02:49:37 PM CET*
%MOMM*%
%LPD*%
G01*
G04 APERTURE LIST*
%ADD10C,0.100000*%
G04 APERTURE END LIST*
D10*
G36*
X258160442Y-147105518D02*
X258226627Y-147112037D01*
X258339853Y-147146384D01*
X258396467Y-147163557D01*
X258535087Y-147237652D01*
X258552991Y-147247222D01*
X258588729Y-147276552D01*
X258690186Y-147359814D01*
X258773448Y-147461271D01*
X258802778Y-147497009D01*
X258802779Y-147497011D01*
X258886443Y-147653533D01*
X258886443Y-147653534D01*
X258937963Y-147823373D01*
X258955359Y-148000000D01*
X258937963Y-148176627D01*
X258929156Y-148205659D01*
X258886443Y-148346467D01*
X258867050Y-148382748D01*
X258802778Y-148502991D01*
X258773448Y-148538729D01*
X258690186Y-148640186D01*
X258588729Y-148723448D01*
X258552991Y-148752778D01*
X258552989Y-148752779D01*
X258396467Y-148836443D01*
X258339853Y-148853616D01*
X258226627Y-148887963D01*
X258160443Y-148894481D01*
X258094260Y-148901000D01*
X257705740Y-148901000D01*
X257639557Y-148894481D01*
X257573373Y-148887963D01*
X257460147Y-148853616D01*
X257403533Y-148836443D01*
X257247011Y-148752779D01*
X257247009Y-148752778D01*
X257211271Y-148723448D01*
X257109814Y-148640186D01*
X257026552Y-148538729D01*
X256997222Y-148502991D01*
X256932950Y-148382748D01*
X256913557Y-148346467D01*
X256870844Y-148205659D01*
X256862037Y-148176627D01*
X256844641Y-148000000D01*
X256862037Y-147823373D01*
X256913557Y-147653534D01*
X256913557Y-147653533D01*
X256997221Y-147497011D01*
X256997222Y-147497009D01*
X257026552Y-147461271D01*
X257109814Y-147359814D01*
X257211271Y-147276552D01*
X257247009Y-147247222D01*
X257264913Y-147237652D01*
X257403533Y-147163557D01*
X257460147Y-147146384D01*
X257573373Y-147112037D01*
X257639558Y-147105518D01*
X257705740Y-147099000D01*
X258094260Y-147099000D01*
X258160442Y-147105518D01*
X258160442Y-147105518D01*
G37*
G36*
X214169376Y-146350764D02*
X214271543Y-146381756D01*
X214322628Y-146397252D01*
X214463865Y-146472745D01*
X214587659Y-146574341D01*
X214689255Y-146698135D01*
X214764748Y-146839372D01*
X214764748Y-146839373D01*
X214811236Y-146992624D01*
X214823000Y-147112068D01*
X214823000Y-147667933D01*
X214811236Y-147787376D01*
X214780244Y-147889543D01*
X214764748Y-147940628D01*
X214689255Y-148081865D01*
X214611487Y-148176625D01*
X214587659Y-148205659D01*
X214463863Y-148307255D01*
X214398120Y-148342395D01*
X214322627Y-148382748D01*
X214271542Y-148398244D01*
X214169375Y-148429236D01*
X214010000Y-148444933D01*
X213850624Y-148429236D01*
X213748457Y-148398244D01*
X213697372Y-148382748D01*
X213556135Y-148307255D01*
X213432341Y-148205659D01*
X213330746Y-148081864D01*
X213255252Y-147940627D01*
X213239756Y-147889542D01*
X213208764Y-147787375D01*
X213197000Y-147667932D01*
X213197000Y-147112067D01*
X213208764Y-146992624D01*
X213255252Y-146839373D01*
X213255252Y-146839372D01*
X213330746Y-146698135D01*
X213432342Y-146574341D01*
X213556136Y-146472745D01*
X213697373Y-146397252D01*
X213748458Y-146381756D01*
X213850625Y-146350764D01*
X214010000Y-146335067D01*
X214169376Y-146350764D01*
X214169376Y-146350764D01*
G37*
G36*
X219249376Y-146350764D02*
X219351543Y-146381756D01*
X219402628Y-146397252D01*
X219543865Y-146472745D01*
X219667659Y-146574341D01*
X219769255Y-146698135D01*
X219844748Y-146839372D01*
X219844748Y-146839373D01*
X219891236Y-146992624D01*
X219903000Y-147112068D01*
X219903000Y-147667933D01*
X219891236Y-147787376D01*
X219860244Y-147889543D01*
X219844748Y-147940628D01*
X219769255Y-148081865D01*
X219691487Y-148176625D01*
X219667659Y-148205659D01*
X219543863Y-148307255D01*
X219478120Y-148342395D01*
X219402627Y-148382748D01*
X219351542Y-148398244D01*
X219249375Y-148429236D01*
X219090000Y-148444933D01*
X218930624Y-148429236D01*
X218828457Y-148398244D01*
X218777372Y-148382748D01*
X218636135Y-148307255D01*
X218512341Y-148205659D01*
X218410746Y-148081864D01*
X218335252Y-147940627D01*
X218319756Y-147889542D01*
X218288764Y-147787375D01*
X218277000Y-147667932D01*
X218277000Y-147112067D01*
X218288764Y-146992624D01*
X218335252Y-146839373D01*
X218335252Y-146839372D01*
X218410746Y-146698135D01*
X218512342Y-146574341D01*
X218636136Y-146472745D01*
X218777373Y-146397252D01*
X218828458Y-146381756D01*
X218930625Y-146350764D01*
X219090000Y-146335067D01*
X219249376Y-146350764D01*
X219249376Y-146350764D01*
G37*
G36*
X258160443Y-142105519D02*
X258226627Y-142112037D01*
X258339853Y-142146384D01*
X258396467Y-142163557D01*
X258535087Y-142237652D01*
X258552991Y-142247222D01*
X258588729Y-142276552D01*
X258690186Y-142359814D01*
X258773448Y-142461271D01*
X258802778Y-142497009D01*
X258802779Y-142497011D01*
X258886443Y-142653533D01*
X258886443Y-142653534D01*
X258937963Y-142823373D01*
X258955359Y-143000000D01*
X258937963Y-143176627D01*
X258903616Y-143289853D01*
X258886443Y-143346467D01*
X258812348Y-143485087D01*
X258802778Y-143502991D01*
X258773448Y-143538729D01*
X258690186Y-143640186D01*
X258588729Y-143723448D01*
X258552991Y-143752778D01*
X258552989Y-143752779D01*
X258396467Y-143836443D01*
X258339853Y-143853616D01*
X258226627Y-143887963D01*
X258160442Y-143894482D01*
X258094260Y-143901000D01*
X257705740Y-143901000D01*
X257639558Y-143894482D01*
X257573373Y-143887963D01*
X257460147Y-143853616D01*
X257403533Y-143836443D01*
X257247011Y-143752779D01*
X257247009Y-143752778D01*
X257211271Y-143723448D01*
X257109814Y-143640186D01*
X257026552Y-143538729D01*
X256997222Y-143502991D01*
X256987652Y-143485087D01*
X256913557Y-143346467D01*
X256896384Y-143289853D01*
X256862037Y-143176627D01*
X256844641Y-143000000D01*
X256862037Y-142823373D01*
X256913557Y-142653534D01*
X256913557Y-142653533D01*
X256997221Y-142497011D01*
X256997222Y-142497009D01*
X257026552Y-142461271D01*
X257109814Y-142359814D01*
X257211271Y-142276552D01*
X257247009Y-142247222D01*
X257264913Y-142237652D01*
X257403533Y-142163557D01*
X257460147Y-142146384D01*
X257573373Y-142112037D01*
X257639557Y-142105519D01*
X257705740Y-142099000D01*
X258094260Y-142099000D01*
X258160443Y-142105519D01*
X258160443Y-142105519D01*
G37*
G36*
X258160442Y-137105518D02*
X258226627Y-137112037D01*
X258339853Y-137146384D01*
X258396467Y-137163557D01*
X258535087Y-137237652D01*
X258552991Y-137247222D01*
X258588729Y-137276552D01*
X258690186Y-137359814D01*
X258773448Y-137461271D01*
X258802778Y-137497009D01*
X258802779Y-137497011D01*
X258886443Y-137653533D01*
X258886443Y-137653534D01*
X258937963Y-137823373D01*
X258955359Y-138000000D01*
X258937963Y-138176627D01*
X258903616Y-138289853D01*
X258886443Y-138346467D01*
X258812348Y-138485087D01*
X258802778Y-138502991D01*
X258773448Y-138538729D01*
X258690186Y-138640186D01*
X258588729Y-138723448D01*
X258552991Y-138752778D01*
X258552989Y-138752779D01*
X258396467Y-138836443D01*
X258339853Y-138853616D01*
X258226627Y-138887963D01*
X258160443Y-138894481D01*
X258094260Y-138901000D01*
X257705740Y-138901000D01*
X257639557Y-138894481D01*
X257573373Y-138887963D01*
X257460147Y-138853616D01*
X257403533Y-138836443D01*
X257247011Y-138752779D01*
X257247009Y-138752778D01*
X257211271Y-138723448D01*
X257109814Y-138640186D01*
X257026552Y-138538729D01*
X256997222Y-138502991D01*
X256987652Y-138485087D01*
X256913557Y-138346467D01*
X256896384Y-138289853D01*
X256862037Y-138176627D01*
X256844641Y-138000000D01*
X256862037Y-137823373D01*
X256913557Y-137653534D01*
X256913557Y-137653533D01*
X256997221Y-137497011D01*
X256997222Y-137497009D01*
X257026552Y-137461271D01*
X257109814Y-137359814D01*
X257211271Y-137276552D01*
X257247009Y-137247222D01*
X257264913Y-137237652D01*
X257403533Y-137163557D01*
X257460147Y-137146384D01*
X257573373Y-137112037D01*
X257639558Y-137105518D01*
X257705740Y-137099000D01*
X258094260Y-137099000D01*
X258160442Y-137105518D01*
X258160442Y-137105518D01*
G37*
G36*
X250277396Y-135335546D02*
X250450466Y-135407234D01*
X250606230Y-135511312D01*
X250738688Y-135643770D01*
X250842766Y-135799534D01*
X250914454Y-135972604D01*
X250951000Y-136156333D01*
X250951000Y-136343667D01*
X250914454Y-136527396D01*
X250842766Y-136700466D01*
X250738688Y-136856230D01*
X250606230Y-136988688D01*
X250450466Y-137092766D01*
X250277396Y-137164454D01*
X250093667Y-137201000D01*
X249906333Y-137201000D01*
X249722604Y-137164454D01*
X249549534Y-137092766D01*
X249393770Y-136988688D01*
X249261312Y-136856230D01*
X249157234Y-136700466D01*
X249085546Y-136527396D01*
X249049000Y-136343667D01*
X249049000Y-136156333D01*
X249085546Y-135972604D01*
X249157234Y-135799534D01*
X249261312Y-135643770D01*
X249393770Y-135511312D01*
X249549534Y-135407234D01*
X249722604Y-135335546D01*
X249906333Y-135299000D01*
X250093667Y-135299000D01*
X250277396Y-135335546D01*
X250277396Y-135335546D01*
G37*
G36*
X258160443Y-132105519D02*
X258226627Y-132112037D01*
X258339853Y-132146384D01*
X258396467Y-132163557D01*
X258535087Y-132237652D01*
X258552991Y-132247222D01*
X258588729Y-132276552D01*
X258690186Y-132359814D01*
X258773448Y-132461271D01*
X258802778Y-132497009D01*
X258802779Y-132497011D01*
X258886443Y-132653533D01*
X258886443Y-132653534D01*
X258937963Y-132823373D01*
X258955359Y-133000000D01*
X258937963Y-133176627D01*
X258903616Y-133289853D01*
X258886443Y-133346467D01*
X258812348Y-133485087D01*
X258802778Y-133502991D01*
X258773448Y-133538729D01*
X258690186Y-133640186D01*
X258588729Y-133723448D01*
X258552991Y-133752778D01*
X258552989Y-133752779D01*
X258396467Y-133836443D01*
X258339853Y-133853616D01*
X258226627Y-133887963D01*
X258160443Y-133894481D01*
X258094260Y-133901000D01*
X257705740Y-133901000D01*
X257639557Y-133894481D01*
X257573373Y-133887963D01*
X257460147Y-133853616D01*
X257403533Y-133836443D01*
X257247011Y-133752779D01*
X257247009Y-133752778D01*
X257211271Y-133723448D01*
X257109814Y-133640186D01*
X257026552Y-133538729D01*
X256997222Y-133502991D01*
X256987652Y-133485087D01*
X256913557Y-133346467D01*
X256896384Y-133289853D01*
X256862037Y-133176627D01*
X256844641Y-133000000D01*
X256862037Y-132823373D01*
X256913557Y-132653534D01*
X256913557Y-132653533D01*
X256997221Y-132497011D01*
X256997222Y-132497009D01*
X257026552Y-132461271D01*
X257109814Y-132359814D01*
X257211271Y-132276552D01*
X257247009Y-132247222D01*
X257264913Y-132237652D01*
X257403533Y-132163557D01*
X257460147Y-132146384D01*
X257573373Y-132112037D01*
X257639557Y-132105519D01*
X257705740Y-132099000D01*
X258094260Y-132099000D01*
X258160443Y-132105519D01*
X258160443Y-132105519D01*
G37*
G36*
X244649376Y-128570764D02*
X244751543Y-128601756D01*
X244802628Y-128617252D01*
X244943865Y-128692745D01*
X245067659Y-128794341D01*
X245169255Y-128918135D01*
X245244748Y-129059372D01*
X245244748Y-129059373D01*
X245291236Y-129212624D01*
X245303000Y-129332068D01*
X245303000Y-129887933D01*
X245291236Y-130007376D01*
X245260244Y-130109543D01*
X245244748Y-130160628D01*
X245169255Y-130301865D01*
X245067659Y-130425659D01*
X244943863Y-130527255D01*
X244878120Y-130562395D01*
X244802627Y-130602748D01*
X244751542Y-130618244D01*
X244649375Y-130649236D01*
X244490000Y-130664933D01*
X244330624Y-130649236D01*
X244228457Y-130618244D01*
X244177372Y-130602748D01*
X244036135Y-130527255D01*
X243912341Y-130425659D01*
X243810746Y-130301864D01*
X243735252Y-130160627D01*
X243719756Y-130109542D01*
X243688764Y-130007375D01*
X243677000Y-129887932D01*
X243677000Y-129332067D01*
X243688764Y-129212624D01*
X243735252Y-129059373D01*
X243735252Y-129059372D01*
X243810746Y-128918135D01*
X243912342Y-128794341D01*
X244036136Y-128692745D01*
X244177373Y-128617252D01*
X244228458Y-128601756D01*
X244330625Y-128570764D01*
X244490000Y-128555067D01*
X244649376Y-128570764D01*
X244649376Y-128570764D01*
G37*
G36*
X239569376Y-128570764D02*
X239671543Y-128601756D01*
X239722628Y-128617252D01*
X239863865Y-128692745D01*
X239987659Y-128794341D01*
X240089255Y-128918135D01*
X240164748Y-129059372D01*
X240164748Y-129059373D01*
X240211236Y-129212624D01*
X240223000Y-129332068D01*
X240223000Y-129887933D01*
X240211236Y-130007376D01*
X240180244Y-130109543D01*
X240164748Y-130160628D01*
X240089255Y-130301865D01*
X239987659Y-130425659D01*
X239863863Y-130527255D01*
X239798120Y-130562395D01*
X239722627Y-130602748D01*
X239671542Y-130618244D01*
X239569375Y-130649236D01*
X239410000Y-130664933D01*
X239250624Y-130649236D01*
X239148457Y-130618244D01*
X239097372Y-130602748D01*
X238956135Y-130527255D01*
X238832341Y-130425659D01*
X238730746Y-130301864D01*
X238655252Y-130160627D01*
X238639756Y-130109542D01*
X238608764Y-130007375D01*
X238597000Y-129887932D01*
X238597000Y-129332067D01*
X238608764Y-129212624D01*
X238655252Y-129059373D01*
X238655252Y-129059372D01*
X238730746Y-128918135D01*
X238832342Y-128794341D01*
X238956136Y-128692745D01*
X239097373Y-128617252D01*
X239148458Y-128601756D01*
X239250625Y-128570764D01*
X239410000Y-128555067D01*
X239569376Y-128570764D01*
X239569376Y-128570764D01*
G37*
G36*
X214169376Y-128570764D02*
X214271543Y-128601756D01*
X214322628Y-128617252D01*
X214463865Y-128692745D01*
X214587659Y-128794341D01*
X214689255Y-128918135D01*
X214764748Y-129059372D01*
X214764748Y-129059373D01*
X214811236Y-129212624D01*
X214823000Y-129332068D01*
X214823000Y-129887933D01*
X214811236Y-130007376D01*
X214780244Y-130109543D01*
X214764748Y-130160628D01*
X214689255Y-130301865D01*
X214587659Y-130425659D01*
X214463863Y-130527255D01*
X214398120Y-130562395D01*
X214322627Y-130602748D01*
X214271542Y-130618244D01*
X214169375Y-130649236D01*
X214010000Y-130664933D01*
X213850624Y-130649236D01*
X213748457Y-130618244D01*
X213697372Y-130602748D01*
X213556135Y-130527255D01*
X213432341Y-130425659D01*
X213330746Y-130301864D01*
X213255252Y-130160627D01*
X213239756Y-130109542D01*
X213208764Y-130007375D01*
X213197000Y-129887932D01*
X213197000Y-129332067D01*
X213208764Y-129212624D01*
X213255252Y-129059373D01*
X213255252Y-129059372D01*
X213330746Y-128918135D01*
X213432342Y-128794341D01*
X213556136Y-128692745D01*
X213697373Y-128617252D01*
X213748458Y-128601756D01*
X213850625Y-128570764D01*
X214010000Y-128555067D01*
X214169376Y-128570764D01*
X214169376Y-128570764D01*
G37*
G36*
X251677396Y-127835546D02*
X251850466Y-127907234D01*
X252006230Y-128011312D01*
X252138688Y-128143770D01*
X252242766Y-128299534D01*
X252314454Y-128472604D01*
X252351000Y-128656333D01*
X252351000Y-128843667D01*
X252314454Y-129027396D01*
X252242766Y-129200466D01*
X252138688Y-129356230D01*
X252006230Y-129488688D01*
X251850466Y-129592766D01*
X251677396Y-129664454D01*
X251493667Y-129701000D01*
X251306333Y-129701000D01*
X251122604Y-129664454D01*
X250949534Y-129592766D01*
X250793770Y-129488688D01*
X250661312Y-129356230D01*
X250557234Y-129200466D01*
X250485546Y-129027396D01*
X250449000Y-128843667D01*
X250449000Y-128656333D01*
X250485546Y-128472604D01*
X250557234Y-128299534D01*
X250661312Y-128143770D01*
X250793770Y-128011312D01*
X250949534Y-127907234D01*
X251122604Y-127835546D01*
X251306333Y-127799000D01*
X251493667Y-127799000D01*
X251677396Y-127835546D01*
X251677396Y-127835546D01*
G37*
G36*
X258160443Y-127105519D02*
X258226627Y-127112037D01*
X258339853Y-127146384D01*
X258396467Y-127163557D01*
X258535087Y-127237652D01*
X258552991Y-127247222D01*
X258588729Y-127276552D01*
X258690186Y-127359814D01*
X258773448Y-127461271D01*
X258802778Y-127497009D01*
X258802779Y-127497011D01*
X258886443Y-127653533D01*
X258886443Y-127653534D01*
X258937963Y-127823373D01*
X258955359Y-128000000D01*
X258937963Y-128176627D01*
X258903616Y-128289853D01*
X258886443Y-128346467D01*
X258819020Y-128472604D01*
X258802778Y-128502991D01*
X258773448Y-128538729D01*
X258690186Y-128640186D01*
X258588729Y-128723448D01*
X258552991Y-128752778D01*
X258552989Y-128752779D01*
X258396467Y-128836443D01*
X258372652Y-128843667D01*
X258226627Y-128887963D01*
X258160443Y-128894481D01*
X258094260Y-128901000D01*
X257705740Y-128901000D01*
X257639557Y-128894481D01*
X257573373Y-128887963D01*
X257427348Y-128843667D01*
X257403533Y-128836443D01*
X257247011Y-128752779D01*
X257247009Y-128752778D01*
X257211271Y-128723448D01*
X257109814Y-128640186D01*
X257026552Y-128538729D01*
X256997222Y-128502991D01*
X256980980Y-128472604D01*
X256913557Y-128346467D01*
X256896384Y-128289853D01*
X256862037Y-128176627D01*
X256844641Y-128000000D01*
X256862037Y-127823373D01*
X256913557Y-127653534D01*
X256913557Y-127653533D01*
X256997221Y-127497011D01*
X256997222Y-127497009D01*
X257026552Y-127461271D01*
X257109814Y-127359814D01*
X257211271Y-127276552D01*
X257247009Y-127247222D01*
X257264913Y-127237652D01*
X257403533Y-127163557D01*
X257460147Y-127146384D01*
X257573373Y-127112037D01*
X257639557Y-127105519D01*
X257705740Y-127099000D01*
X258094260Y-127099000D01*
X258160443Y-127105519D01*
X258160443Y-127105519D01*
G37*
G36*
X230375256Y-119391298D02*
X230481579Y-119412447D01*
X230782042Y-119536903D01*
X230863517Y-119591343D01*
X231052454Y-119717587D01*
X231282413Y-119947546D01*
X231282415Y-119947549D01*
X231409663Y-120137988D01*
X231463098Y-120217960D01*
X231478121Y-120254230D01*
X231543192Y-120411323D01*
X231587553Y-120518422D01*
X231651000Y-120837389D01*
X231651000Y-121162611D01*
X231614290Y-121347161D01*
X231587553Y-121481579D01*
X231527581Y-121626364D01*
X231463098Y-121782040D01*
X231282413Y-122052454D01*
X231052454Y-122282413D01*
X231052451Y-122282415D01*
X230782042Y-122463097D01*
X230481579Y-122587553D01*
X230375256Y-122608702D01*
X230162611Y-122651000D01*
X229837389Y-122651000D01*
X229624744Y-122608702D01*
X229518421Y-122587553D01*
X229217958Y-122463097D01*
X228947549Y-122282415D01*
X228947546Y-122282413D01*
X228717587Y-122052454D01*
X228536902Y-121782040D01*
X228472419Y-121626364D01*
X228412447Y-121481579D01*
X228385710Y-121347161D01*
X228349000Y-121162611D01*
X228349000Y-120837389D01*
X228412447Y-120518422D01*
X228456809Y-120411323D01*
X228521879Y-120254230D01*
X228536902Y-120217960D01*
X228590338Y-120137988D01*
X228717585Y-119947549D01*
X228717587Y-119947546D01*
X228947546Y-119717587D01*
X229136483Y-119591343D01*
X229217958Y-119536903D01*
X229518421Y-119412447D01*
X229624744Y-119391298D01*
X229837389Y-119349000D01*
X230162611Y-119349000D01*
X230375256Y-119391298D01*
X230375256Y-119391298D01*
G37*
G36*
X216738677Y-120253465D02*
X216776364Y-120264898D01*
X216811103Y-120283466D01*
X216841548Y-120308452D01*
X216866534Y-120338897D01*
X216885102Y-120373636D01*
X216896535Y-120411323D01*
X216901000Y-120456661D01*
X216901000Y-121543339D01*
X216896535Y-121588677D01*
X216885102Y-121626364D01*
X216866534Y-121661103D01*
X216841548Y-121691548D01*
X216811103Y-121716534D01*
X216776364Y-121735102D01*
X216738677Y-121746535D01*
X216693339Y-121751000D01*
X215856661Y-121751000D01*
X215811323Y-121746535D01*
X215773636Y-121735102D01*
X215738897Y-121716534D01*
X215708452Y-121691548D01*
X215683466Y-121661103D01*
X215664898Y-121626364D01*
X215653465Y-121588677D01*
X215649000Y-121543339D01*
X215649000Y-120456661D01*
X215653465Y-120411323D01*
X215664898Y-120373636D01*
X215683466Y-120338897D01*
X215708452Y-120308452D01*
X215738897Y-120283466D01*
X215773636Y-120264898D01*
X215811323Y-120253465D01*
X215856661Y-120249000D01*
X216693339Y-120249000D01*
X216738677Y-120253465D01*
X216738677Y-120253465D01*
G37*
G36*
X214688677Y-120253465D02*
X214726364Y-120264898D01*
X214761103Y-120283466D01*
X214791548Y-120308452D01*
X214816534Y-120338897D01*
X214835102Y-120373636D01*
X214846535Y-120411323D01*
X214851000Y-120456661D01*
X214851000Y-121543339D01*
X214846535Y-121588677D01*
X214835102Y-121626364D01*
X214816534Y-121661103D01*
X214791548Y-121691548D01*
X214761103Y-121716534D01*
X214726364Y-121735102D01*
X214688677Y-121746535D01*
X214643339Y-121751000D01*
X213806661Y-121751000D01*
X213761323Y-121746535D01*
X213723636Y-121735102D01*
X213688897Y-121716534D01*
X213658452Y-121691548D01*
X213633466Y-121661103D01*
X213614898Y-121626364D01*
X213603465Y-121588677D01*
X213599000Y-121543339D01*
X213599000Y-120456661D01*
X213603465Y-120411323D01*
X213614898Y-120373636D01*
X213633466Y-120338897D01*
X213658452Y-120308452D01*
X213688897Y-120283466D01*
X213723636Y-120264898D01*
X213761323Y-120253465D01*
X213806661Y-120249000D01*
X214643339Y-120249000D01*
X214688677Y-120253465D01*
X214688677Y-120253465D01*
G37*
G36*
X237102527Y-118488736D02*
X237202410Y-118508604D01*
X237484674Y-118625521D01*
X237738705Y-118795259D01*
X237954741Y-119011295D01*
X238124479Y-119265326D01*
X238236969Y-119536903D01*
X238241396Y-119547591D01*
X238301000Y-119847238D01*
X238301000Y-120152762D01*
X238277736Y-120269718D01*
X238241396Y-120452410D01*
X238124479Y-120734674D01*
X237954741Y-120988705D01*
X237738705Y-121204741D01*
X237484674Y-121374479D01*
X237202410Y-121491396D01*
X237102527Y-121511264D01*
X236902762Y-121551000D01*
X236597238Y-121551000D01*
X236397473Y-121511264D01*
X236297590Y-121491396D01*
X236015326Y-121374479D01*
X235761295Y-121204741D01*
X235545259Y-120988705D01*
X235375521Y-120734674D01*
X235258604Y-120452410D01*
X235222264Y-120269718D01*
X235199000Y-120152762D01*
X235199000Y-119847238D01*
X235258604Y-119547591D01*
X235263031Y-119536903D01*
X235375521Y-119265326D01*
X235545259Y-119011295D01*
X235761295Y-118795259D01*
X236015326Y-118625521D01*
X236297590Y-118508604D01*
X236397473Y-118488736D01*
X236597238Y-118449000D01*
X236902762Y-118449000D01*
X237102527Y-118488736D01*
X237102527Y-118488736D01*
G37*
G36*
X259602527Y-118488736D02*
X259702410Y-118508604D01*
X259984674Y-118625521D01*
X260238705Y-118795259D01*
X260454741Y-119011295D01*
X260624479Y-119265326D01*
X260736969Y-119536903D01*
X260741396Y-119547591D01*
X260801000Y-119847238D01*
X260801000Y-120152762D01*
X260777736Y-120269718D01*
X260741396Y-120452410D01*
X260624479Y-120734674D01*
X260454741Y-120988705D01*
X260238705Y-121204741D01*
X259984674Y-121374479D01*
X259702410Y-121491396D01*
X259602527Y-121511264D01*
X259402762Y-121551000D01*
X259097238Y-121551000D01*
X258897473Y-121511264D01*
X258797590Y-121491396D01*
X258515326Y-121374479D01*
X258261295Y-121204741D01*
X258045259Y-120988705D01*
X257875521Y-120734674D01*
X257758604Y-120452410D01*
X257722264Y-120269718D01*
X257699000Y-120152762D01*
X257699000Y-119847238D01*
X257758604Y-119547591D01*
X257763031Y-119536903D01*
X257875521Y-119265326D01*
X258045259Y-119011295D01*
X258261295Y-118795259D01*
X258515326Y-118625521D01*
X258797590Y-118508604D01*
X258897473Y-118488736D01*
X259097238Y-118449000D01*
X259402762Y-118449000D01*
X259602527Y-118488736D01*
X259602527Y-118488736D01*
G37*
G36*
X248318433Y-118634893D02*
X248408657Y-118652839D01*
X248514267Y-118696585D01*
X248663621Y-118758449D01*
X248893089Y-118911774D01*
X249088226Y-119106911D01*
X249241551Y-119336379D01*
X249273059Y-119412447D01*
X249329038Y-119547590D01*
X249347161Y-119591344D01*
X249401000Y-119862012D01*
X249401000Y-120137988D01*
X249378918Y-120249000D01*
X249347161Y-120408657D01*
X249327277Y-120456661D01*
X249241551Y-120663621D01*
X249088226Y-120893089D01*
X248893089Y-121088226D01*
X248663621Y-121241551D01*
X248514267Y-121303415D01*
X248408657Y-121347161D01*
X248318433Y-121365107D01*
X248137988Y-121401000D01*
X247862012Y-121401000D01*
X247681567Y-121365107D01*
X247591343Y-121347161D01*
X247485733Y-121303415D01*
X247336379Y-121241551D01*
X247106911Y-121088226D01*
X246911774Y-120893089D01*
X246758449Y-120663621D01*
X246672723Y-120456661D01*
X246652839Y-120408657D01*
X246621082Y-120249000D01*
X246599000Y-120137988D01*
X246599000Y-119862012D01*
X246652839Y-119591344D01*
X246670963Y-119547590D01*
X246726941Y-119412447D01*
X246758449Y-119336379D01*
X246911774Y-119106911D01*
X247106911Y-118911774D01*
X247336379Y-118758449D01*
X247485733Y-118696585D01*
X247591343Y-118652839D01*
X247681567Y-118634893D01*
X247862012Y-118599000D01*
X248137988Y-118599000D01*
X248318433Y-118634893D01*
X248318433Y-118634893D01*
G37*
G36*
X223338677Y-115403465D02*
X223376364Y-115414898D01*
X223411103Y-115433466D01*
X223441548Y-115458452D01*
X223466534Y-115488897D01*
X223485102Y-115523636D01*
X223496535Y-115561323D01*
X223501000Y-115606661D01*
X223501000Y-116443339D01*
X223496535Y-116488677D01*
X223485102Y-116526364D01*
X223466534Y-116561103D01*
X223441548Y-116591548D01*
X223411103Y-116616534D01*
X223376364Y-116635102D01*
X223338677Y-116646535D01*
X223293339Y-116651000D01*
X222206661Y-116651000D01*
X222161323Y-116646535D01*
X222123636Y-116635102D01*
X222088897Y-116616534D01*
X222058452Y-116591548D01*
X222033466Y-116561103D01*
X222014898Y-116526364D01*
X222003465Y-116488677D01*
X221999000Y-116443339D01*
X221999000Y-115606661D01*
X222003465Y-115561323D01*
X222014898Y-115523636D01*
X222033466Y-115488897D01*
X222058452Y-115458452D01*
X222088897Y-115433466D01*
X222123636Y-115414898D01*
X222161323Y-115403465D01*
X222206661Y-115399000D01*
X223293339Y-115399000D01*
X223338677Y-115403465D01*
X223338677Y-115403465D01*
G37*
G36*
X223338677Y-113353465D02*
X223376364Y-113364898D01*
X223411103Y-113383466D01*
X223441548Y-113408452D01*
X223466534Y-113438897D01*
X223485102Y-113473636D01*
X223496535Y-113511323D01*
X223501000Y-113556661D01*
X223501000Y-114393339D01*
X223496535Y-114438677D01*
X223485102Y-114476364D01*
X223466534Y-114511103D01*
X223441548Y-114541548D01*
X223411103Y-114566534D01*
X223376364Y-114585102D01*
X223338677Y-114596535D01*
X223293339Y-114601000D01*
X222206661Y-114601000D01*
X222161323Y-114596535D01*
X222123636Y-114585102D01*
X222088897Y-114566534D01*
X222058452Y-114541548D01*
X222033466Y-114511103D01*
X222014898Y-114476364D01*
X222003465Y-114438677D01*
X221999000Y-114393339D01*
X221999000Y-113556661D01*
X222003465Y-113511323D01*
X222014898Y-113473636D01*
X222033466Y-113438897D01*
X222058452Y-113408452D01*
X222088897Y-113383466D01*
X222123636Y-113364898D01*
X222161323Y-113353465D01*
X222206661Y-113349000D01*
X223293339Y-113349000D01*
X223338677Y-113353465D01*
X223338677Y-113353465D01*
G37*
G36*
X244832510Y-112202041D02*
X244956032Y-112214207D01*
X245154146Y-112274305D01*
X245336729Y-112371897D01*
X245496765Y-112503235D01*
X245628103Y-112663271D01*
X245725695Y-112845854D01*
X245785793Y-113043968D01*
X245806085Y-113250000D01*
X245785793Y-113456032D01*
X245725695Y-113654146D01*
X245628103Y-113836729D01*
X245496765Y-113996765D01*
X245336729Y-114128103D01*
X245154146Y-114225695D01*
X244956032Y-114285793D01*
X244832510Y-114297959D01*
X244801631Y-114301000D01*
X243698369Y-114301000D01*
X243667490Y-114297959D01*
X243543968Y-114285793D01*
X243345854Y-114225695D01*
X243163271Y-114128103D01*
X243003235Y-113996765D01*
X242871897Y-113836729D01*
X242774305Y-113654146D01*
X242714207Y-113456032D01*
X242693915Y-113250000D01*
X242714207Y-113043968D01*
X242774305Y-112845854D01*
X242871897Y-112663271D01*
X243003235Y-112503235D01*
X243163271Y-112371897D01*
X243345854Y-112274305D01*
X243543968Y-112214207D01*
X243667490Y-112202041D01*
X243698369Y-112199000D01*
X244801631Y-112199000D01*
X244832510Y-112202041D01*
X244832510Y-112202041D01*
G37*
G36*
X225787421Y-112559143D02*
X225919557Y-112599227D01*
X225919559Y-112599228D01*
X226041339Y-112664320D01*
X226148080Y-112751920D01*
X226235680Y-112858661D01*
X226300772Y-112980441D01*
X226300773Y-112980443D01*
X226340857Y-113112579D01*
X226354391Y-113250000D01*
X226340857Y-113387421D01*
X226300773Y-113519557D01*
X226300772Y-113519559D01*
X226235680Y-113641339D01*
X226148080Y-113748080D01*
X226041339Y-113835680D01*
X225919559Y-113900772D01*
X225919557Y-113900773D01*
X225787421Y-113940857D01*
X225684432Y-113951000D01*
X224915568Y-113951000D01*
X224812579Y-113940857D01*
X224680443Y-113900773D01*
X224680441Y-113900772D01*
X224558661Y-113835680D01*
X224451920Y-113748080D01*
X224364320Y-113641339D01*
X224299228Y-113519559D01*
X224299227Y-113519557D01*
X224259143Y-113387421D01*
X224245609Y-113250000D01*
X224259143Y-113112579D01*
X224299227Y-112980443D01*
X224299228Y-112980441D01*
X224364320Y-112858661D01*
X224451920Y-112751920D01*
X224558661Y-112664320D01*
X224680441Y-112599228D01*
X224680443Y-112599227D01*
X224812579Y-112559143D01*
X224915568Y-112549000D01*
X225684432Y-112549000D01*
X225787421Y-112559143D01*
X225787421Y-112559143D01*
G37*
G36*
X257375256Y-109391298D02*
X257481579Y-109412447D01*
X257782042Y-109536903D01*
X258048852Y-109715180D01*
X258052454Y-109717587D01*
X258282413Y-109947546D01*
X258463098Y-110217960D01*
X258587553Y-110518422D01*
X258651000Y-110837389D01*
X258651000Y-111162611D01*
X258587553Y-111481578D01*
X258463098Y-111782040D01*
X258282413Y-112052454D01*
X258052454Y-112282413D01*
X258052451Y-112282415D01*
X257782042Y-112463097D01*
X257481579Y-112587553D01*
X257375256Y-112608702D01*
X257162611Y-112651000D01*
X256837389Y-112651000D01*
X256624744Y-112608702D01*
X256518421Y-112587553D01*
X256217958Y-112463097D01*
X255947549Y-112282415D01*
X255947546Y-112282413D01*
X255717587Y-112052454D01*
X255536902Y-111782040D01*
X255412447Y-111481578D01*
X255349000Y-111162611D01*
X255349000Y-110837389D01*
X255412447Y-110518422D01*
X255536902Y-110217960D01*
X255717587Y-109947546D01*
X255947546Y-109717587D01*
X255951148Y-109715180D01*
X256217958Y-109536903D01*
X256518421Y-109412447D01*
X256624744Y-109391298D01*
X256837389Y-109349000D01*
X257162611Y-109349000D01*
X257375256Y-109391298D01*
X257375256Y-109391298D01*
G37*
G36*
X249582510Y-104202041D02*
X249706032Y-104214207D01*
X249904146Y-104274305D01*
X250086729Y-104371897D01*
X250246765Y-104503235D01*
X250378103Y-104663271D01*
X250475695Y-104845854D01*
X250535793Y-105043968D01*
X250556085Y-105250000D01*
X250535793Y-105456032D01*
X250475695Y-105654146D01*
X250378103Y-105836729D01*
X250246765Y-105996765D01*
X250086729Y-106128103D01*
X249904146Y-106225695D01*
X249706032Y-106285793D01*
X249582510Y-106297959D01*
X249551631Y-106301000D01*
X248448369Y-106301000D01*
X248417490Y-106297959D01*
X248293968Y-106285793D01*
X248095854Y-106225695D01*
X247913271Y-106128103D01*
X247753235Y-105996765D01*
X247621897Y-105836729D01*
X247524305Y-105654146D01*
X247464207Y-105456032D01*
X247443915Y-105250000D01*
X247464207Y-105043968D01*
X247524305Y-104845854D01*
X247621897Y-104663271D01*
X247753235Y-104503235D01*
X247913271Y-104371897D01*
X248095854Y-104274305D01*
X248293968Y-104214207D01*
X248417490Y-104202041D01*
X248448369Y-104199000D01*
X249551631Y-104199000D01*
X249582510Y-104202041D01*
X249582510Y-104202041D01*
G37*
G36*
X225787421Y-104559143D02*
X225919557Y-104599227D01*
X225919559Y-104599228D01*
X226041339Y-104664320D01*
X226148080Y-104751920D01*
X226235680Y-104858661D01*
X226300772Y-104980441D01*
X226300773Y-104980443D01*
X226340857Y-105112579D01*
X226354391Y-105250000D01*
X226340857Y-105387421D01*
X226300773Y-105519557D01*
X226300772Y-105519559D01*
X226235680Y-105641339D01*
X226148080Y-105748080D01*
X226041339Y-105835680D01*
X225919559Y-105900772D01*
X225919557Y-105900773D01*
X225787421Y-105940857D01*
X225684432Y-105951000D01*
X224915568Y-105951000D01*
X224812579Y-105940857D01*
X224680443Y-105900773D01*
X224680441Y-105900772D01*
X224558661Y-105835680D01*
X224451920Y-105748080D01*
X224364320Y-105641339D01*
X224299228Y-105519559D01*
X224299227Y-105519557D01*
X224259143Y-105387421D01*
X224245609Y-105250000D01*
X224259143Y-105112579D01*
X224299227Y-104980443D01*
X224299228Y-104980441D01*
X224364320Y-104858661D01*
X224451920Y-104751920D01*
X224558661Y-104664320D01*
X224680441Y-104599228D01*
X224680443Y-104599227D01*
X224812579Y-104559143D01*
X224915568Y-104549000D01*
X225684432Y-104549000D01*
X225787421Y-104559143D01*
X225787421Y-104559143D01*
G37*
G36*
X257810442Y-102955518D02*
X257876627Y-102962037D01*
X257989853Y-102996384D01*
X258046467Y-103013557D01*
X258185087Y-103087652D01*
X258202991Y-103097222D01*
X258238729Y-103126552D01*
X258340186Y-103209814D01*
X258423448Y-103311271D01*
X258452778Y-103347009D01*
X258452779Y-103347011D01*
X258536443Y-103503533D01*
X258536443Y-103503534D01*
X258587963Y-103673373D01*
X258605359Y-103850000D01*
X258587963Y-104026627D01*
X258553616Y-104139853D01*
X258536443Y-104196467D01*
X258462348Y-104335087D01*
X258452778Y-104352991D01*
X258437262Y-104371897D01*
X258340186Y-104490186D01*
X258256160Y-104559143D01*
X258202991Y-104602778D01*
X258202989Y-104602779D01*
X258046467Y-104686443D01*
X257989853Y-104703616D01*
X257876627Y-104737963D01*
X257810443Y-104744481D01*
X257744260Y-104751000D01*
X257355740Y-104751000D01*
X257289557Y-104744481D01*
X257223373Y-104737963D01*
X257110147Y-104703616D01*
X257053533Y-104686443D01*
X256897011Y-104602779D01*
X256897009Y-104602778D01*
X256843840Y-104559143D01*
X256759814Y-104490186D01*
X256662738Y-104371897D01*
X256647222Y-104352991D01*
X256637652Y-104335087D01*
X256563557Y-104196467D01*
X256546384Y-104139853D01*
X256512037Y-104026627D01*
X256494641Y-103850000D01*
X256512037Y-103673373D01*
X256563557Y-103503534D01*
X256563557Y-103503533D01*
X256647221Y-103347011D01*
X256647222Y-103347009D01*
X256676552Y-103311271D01*
X256759814Y-103209814D01*
X256861271Y-103126552D01*
X256897009Y-103097222D01*
X256914913Y-103087652D01*
X257053533Y-103013557D01*
X257110147Y-102996384D01*
X257223373Y-102962037D01*
X257289558Y-102955518D01*
X257355740Y-102949000D01*
X257744260Y-102949000D01*
X257810442Y-102955518D01*
X257810442Y-102955518D01*
G37*
G36*
X244832510Y-101702041D02*
X244956032Y-101714207D01*
X245154146Y-101774305D01*
X245336729Y-101871897D01*
X245496765Y-102003235D01*
X245628103Y-102163271D01*
X245725695Y-102345854D01*
X245785793Y-102543968D01*
X245806085Y-102750000D01*
X245785793Y-102956032D01*
X245725695Y-103154146D01*
X245628103Y-103336729D01*
X245496765Y-103496765D01*
X245336729Y-103628103D01*
X245154146Y-103725695D01*
X244956032Y-103785793D01*
X244832510Y-103797959D01*
X244801631Y-103801000D01*
X243698369Y-103801000D01*
X243667490Y-103797959D01*
X243543968Y-103785793D01*
X243345854Y-103725695D01*
X243163271Y-103628103D01*
X243003235Y-103496765D01*
X242871897Y-103336729D01*
X242774305Y-103154146D01*
X242714207Y-102956032D01*
X242693915Y-102750000D01*
X242714207Y-102543968D01*
X242774305Y-102345854D01*
X242871897Y-102163271D01*
X243003235Y-102003235D01*
X243163271Y-101871897D01*
X243345854Y-101774305D01*
X243543968Y-101714207D01*
X243667490Y-101702041D01*
X243698369Y-101699000D01*
X244801631Y-101699000D01*
X244832510Y-101702041D01*
X244832510Y-101702041D01*
G37*
G36*
X225787421Y-102059143D02*
X225919557Y-102099227D01*
X225919559Y-102099228D01*
X226041339Y-102164320D01*
X226148080Y-102251920D01*
X226235680Y-102358661D01*
X226300772Y-102480441D01*
X226300773Y-102480443D01*
X226340857Y-102612579D01*
X226354391Y-102750000D01*
X226340857Y-102887421D01*
X226302593Y-103013557D01*
X226300772Y-103019559D01*
X226235680Y-103141339D01*
X226148080Y-103248080D01*
X226041339Y-103335680D01*
X225919559Y-103400772D01*
X225919557Y-103400773D01*
X225787421Y-103440857D01*
X225684432Y-103451000D01*
X224915568Y-103451000D01*
X224812579Y-103440857D01*
X224680443Y-103400773D01*
X224680441Y-103400772D01*
X224558661Y-103335680D01*
X224451920Y-103248080D01*
X224364320Y-103141339D01*
X224299228Y-103019559D01*
X224297407Y-103013557D01*
X224259143Y-102887421D01*
X224245609Y-102750000D01*
X224259143Y-102612579D01*
X224299227Y-102480443D01*
X224299228Y-102480441D01*
X224364320Y-102358661D01*
X224451920Y-102251920D01*
X224558661Y-102164320D01*
X224680441Y-102099228D01*
X224680443Y-102099227D01*
X224812579Y-102059143D01*
X224915568Y-102049000D01*
X225684432Y-102049000D01*
X225787421Y-102059143D01*
X225787421Y-102059143D01*
G37*
G36*
X257810442Y-97955518D02*
X257876627Y-97962037D01*
X257989853Y-97996384D01*
X258046467Y-98013557D01*
X258185087Y-98087652D01*
X258202991Y-98097222D01*
X258238729Y-98126552D01*
X258340186Y-98209814D01*
X258423448Y-98311271D01*
X258452778Y-98347009D01*
X258452779Y-98347011D01*
X258536443Y-98503533D01*
X258536443Y-98503534D01*
X258587963Y-98673373D01*
X258605359Y-98850000D01*
X258587963Y-99026627D01*
X258553616Y-99139853D01*
X258536443Y-99196467D01*
X258462348Y-99335087D01*
X258452778Y-99352991D01*
X258423448Y-99388729D01*
X258340186Y-99490186D01*
X258238729Y-99573448D01*
X258202991Y-99602778D01*
X258202989Y-99602779D01*
X258046467Y-99686443D01*
X257989853Y-99703616D01*
X257876627Y-99737963D01*
X257810442Y-99744482D01*
X257744260Y-99751000D01*
X257355740Y-99751000D01*
X257289557Y-99744481D01*
X257223373Y-99737963D01*
X257110147Y-99703616D01*
X257053533Y-99686443D01*
X256897011Y-99602779D01*
X256897009Y-99602778D01*
X256861271Y-99573448D01*
X256759814Y-99490186D01*
X256676552Y-99388729D01*
X256647222Y-99352991D01*
X256637652Y-99335087D01*
X256563557Y-99196467D01*
X256546384Y-99139853D01*
X256512037Y-99026627D01*
X256494641Y-98850000D01*
X256512037Y-98673373D01*
X256563557Y-98503534D01*
X256563557Y-98503533D01*
X256647221Y-98347011D01*
X256647222Y-98347009D01*
X256676552Y-98311271D01*
X256759814Y-98209814D01*
X256861271Y-98126552D01*
X256897009Y-98097222D01*
X256914913Y-98087652D01*
X257053533Y-98013557D01*
X257110147Y-97996384D01*
X257223373Y-97962037D01*
X257289557Y-97955519D01*
X257355740Y-97949000D01*
X257744260Y-97949000D01*
X257810442Y-97955518D01*
X257810442Y-97955518D01*
G37*
G36*
X249582510Y-93702041D02*
X249706032Y-93714207D01*
X249904146Y-93774305D01*
X250086729Y-93871897D01*
X250246765Y-94003235D01*
X250378103Y-94163271D01*
X250475695Y-94345854D01*
X250535793Y-94543968D01*
X250556085Y-94750000D01*
X250535793Y-94956032D01*
X250475695Y-95154146D01*
X250378103Y-95336729D01*
X250246765Y-95496765D01*
X250086729Y-95628103D01*
X249904146Y-95725695D01*
X249706032Y-95785793D01*
X249582510Y-95797959D01*
X249551631Y-95801000D01*
X248448369Y-95801000D01*
X248417490Y-95797959D01*
X248293968Y-95785793D01*
X248095854Y-95725695D01*
X247913271Y-95628103D01*
X247753235Y-95496765D01*
X247621897Y-95336729D01*
X247524305Y-95154146D01*
X247464207Y-94956032D01*
X247443915Y-94750000D01*
X247464207Y-94543968D01*
X247524305Y-94345854D01*
X247621897Y-94163271D01*
X247753235Y-94003235D01*
X247913271Y-93871897D01*
X248095854Y-93774305D01*
X248293968Y-93714207D01*
X248417490Y-93702041D01*
X248448369Y-93699000D01*
X249551631Y-93699000D01*
X249582510Y-93702041D01*
X249582510Y-93702041D01*
G37*
G36*
X225787421Y-94059143D02*
X225919557Y-94099227D01*
X225919559Y-94099228D01*
X226041339Y-94164320D01*
X226148080Y-94251920D01*
X226235680Y-94358661D01*
X226300772Y-94480441D01*
X226300773Y-94480443D01*
X226340857Y-94612579D01*
X226354391Y-94750000D01*
X226340857Y-94887421D01*
X226300773Y-95019557D01*
X226300772Y-95019559D01*
X226235680Y-95141339D01*
X226148080Y-95248080D01*
X226041339Y-95335680D01*
X225919559Y-95400772D01*
X225919557Y-95400773D01*
X225787421Y-95440857D01*
X225684432Y-95451000D01*
X224915568Y-95451000D01*
X224812579Y-95440857D01*
X224680443Y-95400773D01*
X224680441Y-95400772D01*
X224558661Y-95335680D01*
X224451920Y-95248080D01*
X224364320Y-95141339D01*
X224299228Y-95019559D01*
X224299227Y-95019557D01*
X224259143Y-94887421D01*
X224245609Y-94750000D01*
X224259143Y-94612579D01*
X224299227Y-94480443D01*
X224299228Y-94480441D01*
X224364320Y-94358661D01*
X224451920Y-94251920D01*
X224558661Y-94164320D01*
X224680441Y-94099228D01*
X224680443Y-94099227D01*
X224812579Y-94059143D01*
X224915568Y-94049000D01*
X225684432Y-94049000D01*
X225787421Y-94059143D01*
X225787421Y-94059143D01*
G37*
G36*
X238332510Y-91202041D02*
X238456032Y-91214207D01*
X238654146Y-91274305D01*
X238836729Y-91371897D01*
X238996765Y-91503235D01*
X239128103Y-91663271D01*
X239225695Y-91845854D01*
X239285793Y-92043968D01*
X239306085Y-92250000D01*
X239285793Y-92456032D01*
X239225695Y-92654146D01*
X239128103Y-92836729D01*
X238996765Y-92996765D01*
X238836729Y-93128103D01*
X238654146Y-93225695D01*
X238456032Y-93285793D01*
X238332510Y-93297959D01*
X238301631Y-93301000D01*
X237198369Y-93301000D01*
X237167490Y-93297959D01*
X237043968Y-93285793D01*
X236845854Y-93225695D01*
X236663271Y-93128103D01*
X236503235Y-92996765D01*
X236371897Y-92836729D01*
X236274305Y-92654146D01*
X236214207Y-92456032D01*
X236193915Y-92250000D01*
X236214207Y-92043968D01*
X236274305Y-91845854D01*
X236371897Y-91663271D01*
X236503235Y-91503235D01*
X236663271Y-91371897D01*
X236845854Y-91274305D01*
X237043968Y-91214207D01*
X237167490Y-91202041D01*
X237198369Y-91199000D01*
X238301631Y-91199000D01*
X238332510Y-91202041D01*
X238332510Y-91202041D01*
G37*
G36*
X219287421Y-91559143D02*
X219419557Y-91599227D01*
X219419559Y-91599228D01*
X219541339Y-91664320D01*
X219648080Y-91751920D01*
X219735680Y-91858661D01*
X219800772Y-91980441D01*
X219800773Y-91980443D01*
X219840857Y-92112579D01*
X219854391Y-92250000D01*
X219840857Y-92387421D01*
X219800773Y-92519557D01*
X219800772Y-92519559D01*
X219735680Y-92641339D01*
X219648080Y-92748080D01*
X219541339Y-92835680D01*
X219419559Y-92900772D01*
X219419557Y-92900773D01*
X219287421Y-92940857D01*
X219184432Y-92951000D01*
X218415568Y-92951000D01*
X218312579Y-92940857D01*
X218180443Y-92900773D01*
X218180441Y-92900772D01*
X218058661Y-92835680D01*
X217951920Y-92748080D01*
X217864320Y-92641339D01*
X217799228Y-92519559D01*
X217799227Y-92519557D01*
X217759143Y-92387421D01*
X217745609Y-92250000D01*
X217759143Y-92112579D01*
X217799227Y-91980443D01*
X217799228Y-91980441D01*
X217864320Y-91858661D01*
X217951920Y-91751920D01*
X218058661Y-91664320D01*
X218180441Y-91599228D01*
X218180443Y-91599227D01*
X218312579Y-91559143D01*
X218415568Y-91549000D01*
X219184432Y-91549000D01*
X219287421Y-91559143D01*
X219287421Y-91559143D01*
G37*
G36*
X257375256Y-86391298D02*
X257481579Y-86412447D01*
X257782042Y-86536903D01*
X258048852Y-86715180D01*
X258052454Y-86717587D01*
X258282413Y-86947546D01*
X258463098Y-87217960D01*
X258587553Y-87518422D01*
X258651000Y-87837389D01*
X258651000Y-88162611D01*
X258587553Y-88481578D01*
X258463098Y-88782040D01*
X258282413Y-89052454D01*
X258052454Y-89282413D01*
X258052451Y-89282415D01*
X257782042Y-89463097D01*
X257481579Y-89587553D01*
X257375256Y-89608702D01*
X257162611Y-89651000D01*
X256837389Y-89651000D01*
X256624744Y-89608702D01*
X256518421Y-89587553D01*
X256217958Y-89463097D01*
X255947549Y-89282415D01*
X255947546Y-89282413D01*
X255717587Y-89052454D01*
X255536902Y-88782040D01*
X255412447Y-88481578D01*
X255349000Y-88162611D01*
X255349000Y-87837389D01*
X255412447Y-87518422D01*
X255536902Y-87217960D01*
X255717587Y-86947546D01*
X255947546Y-86717587D01*
X255951148Y-86715180D01*
X256217958Y-86536903D01*
X256518421Y-86412447D01*
X256624744Y-86391298D01*
X256837389Y-86349000D01*
X257162611Y-86349000D01*
X257375256Y-86391298D01*
X257375256Y-86391298D01*
G37*
G36*
X213110442Y-84345518D02*
X213176627Y-84352037D01*
X213289853Y-84386384D01*
X213346467Y-84403557D01*
X213444632Y-84456028D01*
X213502991Y-84487222D01*
X213538729Y-84516552D01*
X213640186Y-84599814D01*
X213723448Y-84701271D01*
X213752778Y-84737009D01*
X213752779Y-84737011D01*
X213836443Y-84893533D01*
X213836443Y-84893534D01*
X213887963Y-85063373D01*
X213905359Y-85240000D01*
X213887963Y-85416627D01*
X213853616Y-85529853D01*
X213836443Y-85586467D01*
X213762348Y-85725087D01*
X213752778Y-85742991D01*
X213723448Y-85778729D01*
X213640186Y-85880186D01*
X213538729Y-85963448D01*
X213502991Y-85992778D01*
X213502989Y-85992779D01*
X213346467Y-86076443D01*
X213289853Y-86093616D01*
X213176627Y-86127963D01*
X213110443Y-86134481D01*
X213044260Y-86141000D01*
X212955740Y-86141000D01*
X212889558Y-86134482D01*
X212823373Y-86127963D01*
X212710147Y-86093616D01*
X212653533Y-86076443D01*
X212497011Y-85992779D01*
X212497009Y-85992778D01*
X212461271Y-85963448D01*
X212359814Y-85880186D01*
X212276552Y-85778729D01*
X212247222Y-85742991D01*
X212237652Y-85725087D01*
X212163557Y-85586467D01*
X212146384Y-85529853D01*
X212112037Y-85416627D01*
X212094641Y-85240000D01*
X212112037Y-85063373D01*
X212163557Y-84893534D01*
X212163557Y-84893533D01*
X212247221Y-84737011D01*
X212247222Y-84737009D01*
X212276552Y-84701271D01*
X212359814Y-84599814D01*
X212461271Y-84516552D01*
X212497009Y-84487222D01*
X212555368Y-84456028D01*
X212653533Y-84403557D01*
X212710147Y-84386384D01*
X212823373Y-84352037D01*
X212889558Y-84345518D01*
X212955740Y-84339000D01*
X213044260Y-84339000D01*
X213110442Y-84345518D01*
X213110442Y-84345518D01*
G37*
G36*
X243082510Y-83202041D02*
X243206032Y-83214207D01*
X243404146Y-83274305D01*
X243586729Y-83371897D01*
X243746765Y-83503235D01*
X243878103Y-83663271D01*
X243975695Y-83845854D01*
X244035793Y-84043968D01*
X244056085Y-84250000D01*
X244035793Y-84456032D01*
X243975695Y-84654146D01*
X243878103Y-84836729D01*
X243746765Y-84996765D01*
X243586729Y-85128103D01*
X243404146Y-85225695D01*
X243206032Y-85285793D01*
X243082510Y-85297959D01*
X243051631Y-85301000D01*
X241948369Y-85301000D01*
X241917490Y-85297959D01*
X241793968Y-85285793D01*
X241595854Y-85225695D01*
X241413271Y-85128103D01*
X241253235Y-84996765D01*
X241121897Y-84836729D01*
X241024305Y-84654146D01*
X240964207Y-84456032D01*
X240943915Y-84250000D01*
X240964207Y-84043968D01*
X241024305Y-83845854D01*
X241121897Y-83663271D01*
X241253235Y-83503235D01*
X241413271Y-83371897D01*
X241595854Y-83274305D01*
X241793968Y-83214207D01*
X241917490Y-83202041D01*
X241948369Y-83199000D01*
X243051631Y-83199000D01*
X243082510Y-83202041D01*
X243082510Y-83202041D01*
G37*
G36*
X219287421Y-83559143D02*
X219419557Y-83599227D01*
X219419559Y-83599228D01*
X219541339Y-83664320D01*
X219648080Y-83751920D01*
X219735680Y-83858661D01*
X219800772Y-83980441D01*
X219800773Y-83980443D01*
X219840857Y-84112579D01*
X219854391Y-84250000D01*
X219840857Y-84387421D01*
X219800773Y-84519557D01*
X219800772Y-84519559D01*
X219735680Y-84641339D01*
X219648080Y-84748080D01*
X219541339Y-84835680D01*
X219419559Y-84900772D01*
X219419557Y-84900773D01*
X219287421Y-84940857D01*
X219184432Y-84951000D01*
X218415568Y-84951000D01*
X218312579Y-84940857D01*
X218180443Y-84900773D01*
X218180441Y-84900772D01*
X218058661Y-84835680D01*
X217951920Y-84748080D01*
X217864320Y-84641339D01*
X217799228Y-84519559D01*
X217799227Y-84519557D01*
X217759143Y-84387421D01*
X217745609Y-84250000D01*
X217759143Y-84112579D01*
X217799227Y-83980443D01*
X217799228Y-83980441D01*
X217864320Y-83858661D01*
X217951920Y-83751920D01*
X218058661Y-83664320D01*
X218180441Y-83599228D01*
X218180443Y-83599227D01*
X218312579Y-83559143D01*
X218415568Y-83549000D01*
X219184432Y-83549000D01*
X219287421Y-83559143D01*
X219287421Y-83559143D01*
G37*
G36*
X213110442Y-81805518D02*
X213176627Y-81812037D01*
X213282120Y-81844038D01*
X213346467Y-81863557D01*
X213485087Y-81937652D01*
X213502991Y-81947222D01*
X213530751Y-81970004D01*
X213640186Y-82059814D01*
X213723448Y-82161271D01*
X213752778Y-82197009D01*
X213752779Y-82197011D01*
X213836443Y-82353533D01*
X213836443Y-82353534D01*
X213887963Y-82523373D01*
X213905359Y-82700000D01*
X213887963Y-82876627D01*
X213853616Y-82989853D01*
X213836443Y-83046467D01*
X213762348Y-83185087D01*
X213752778Y-83202991D01*
X213743573Y-83214207D01*
X213640186Y-83340186D01*
X213538729Y-83423448D01*
X213502991Y-83452778D01*
X213502989Y-83452779D01*
X213346467Y-83536443D01*
X213305071Y-83549000D01*
X213176627Y-83587963D01*
X213110443Y-83594481D01*
X213044260Y-83601000D01*
X212955740Y-83601000D01*
X212889557Y-83594481D01*
X212823373Y-83587963D01*
X212694929Y-83549000D01*
X212653533Y-83536443D01*
X212497011Y-83452779D01*
X212497009Y-83452778D01*
X212461271Y-83423448D01*
X212359814Y-83340186D01*
X212256427Y-83214207D01*
X212247222Y-83202991D01*
X212237652Y-83185087D01*
X212163557Y-83046467D01*
X212146384Y-82989853D01*
X212112037Y-82876627D01*
X212094641Y-82700000D01*
X212112037Y-82523373D01*
X212163557Y-82353534D01*
X212163557Y-82353533D01*
X212247221Y-82197011D01*
X212247222Y-82197009D01*
X212276552Y-82161271D01*
X212359814Y-82059814D01*
X212469249Y-81970004D01*
X212497009Y-81947222D01*
X212514913Y-81937652D01*
X212653533Y-81863557D01*
X212717880Y-81844038D01*
X212823373Y-81812037D01*
X212889558Y-81805518D01*
X212955740Y-81799000D01*
X213044260Y-81799000D01*
X213110442Y-81805518D01*
X213110442Y-81805518D01*
G37*
G36*
X248035734Y-79843232D02*
X248245202Y-79929996D01*
X248433723Y-80055962D01*
X248594038Y-80216277D01*
X248720004Y-80404798D01*
X248806768Y-80614266D01*
X248851000Y-80836635D01*
X248851000Y-81063365D01*
X248806768Y-81285734D01*
X248720004Y-81495202D01*
X248594038Y-81683723D01*
X248433723Y-81844038D01*
X248245202Y-81970004D01*
X248035734Y-82056768D01*
X247813365Y-82101000D01*
X247586635Y-82101000D01*
X247364266Y-82056768D01*
X247154798Y-81970004D01*
X246966277Y-81844038D01*
X246805962Y-81683723D01*
X246679996Y-81495202D01*
X246593232Y-81285734D01*
X246549000Y-81063365D01*
X246549000Y-80836635D01*
X246593232Y-80614266D01*
X246679996Y-80404798D01*
X246805962Y-80216277D01*
X246966277Y-80055962D01*
X247154798Y-79929996D01*
X247364266Y-79843232D01*
X247586635Y-79799000D01*
X247813365Y-79799000D01*
X248035734Y-79843232D01*
X248035734Y-79843232D01*
G37*
G36*
X235835734Y-79843232D02*
X236045202Y-79929996D01*
X236233723Y-80055962D01*
X236394038Y-80216277D01*
X236520004Y-80404798D01*
X236606768Y-80614266D01*
X236651000Y-80836635D01*
X236651000Y-81063365D01*
X236606768Y-81285734D01*
X236520004Y-81495202D01*
X236394038Y-81683723D01*
X236233723Y-81844038D01*
X236045202Y-81970004D01*
X235835734Y-82056768D01*
X235613365Y-82101000D01*
X235386635Y-82101000D01*
X235164266Y-82056768D01*
X234954798Y-81970004D01*
X234766277Y-81844038D01*
X234605962Y-81683723D01*
X234479996Y-81495202D01*
X234393232Y-81285734D01*
X234349000Y-81063365D01*
X234349000Y-80836635D01*
X234393232Y-80614266D01*
X234479996Y-80404798D01*
X234605962Y-80216277D01*
X234766277Y-80055962D01*
X234954798Y-79929996D01*
X235164266Y-79843232D01*
X235386635Y-79799000D01*
X235613365Y-79799000D01*
X235835734Y-79843232D01*
X235835734Y-79843232D01*
G37*
G36*
X213110443Y-79265519D02*
X213176627Y-79272037D01*
X213289853Y-79306384D01*
X213346467Y-79323557D01*
X213485087Y-79397652D01*
X213502991Y-79407222D01*
X213538729Y-79436552D01*
X213640186Y-79519814D01*
X213723448Y-79621271D01*
X213752778Y-79657009D01*
X213752779Y-79657011D01*
X213836443Y-79813533D01*
X213836443Y-79813534D01*
X213887963Y-79983373D01*
X213905359Y-80160000D01*
X213887963Y-80336627D01*
X213853616Y-80449853D01*
X213836443Y-80506467D01*
X213778822Y-80614266D01*
X213752778Y-80662991D01*
X213723448Y-80698729D01*
X213640186Y-80800186D01*
X213538729Y-80883448D01*
X213502991Y-80912778D01*
X213502989Y-80912779D01*
X213346467Y-80996443D01*
X213289853Y-81013616D01*
X213176627Y-81047963D01*
X213110442Y-81054482D01*
X213044260Y-81061000D01*
X212955740Y-81061000D01*
X212889558Y-81054482D01*
X212823373Y-81047963D01*
X212710147Y-81013616D01*
X212653533Y-80996443D01*
X212497011Y-80912779D01*
X212497009Y-80912778D01*
X212461271Y-80883448D01*
X212359814Y-80800186D01*
X212276552Y-80698729D01*
X212247222Y-80662991D01*
X212221178Y-80614266D01*
X212163557Y-80506467D01*
X212146384Y-80449853D01*
X212112037Y-80336627D01*
X212094641Y-80160000D01*
X212112037Y-79983373D01*
X212163557Y-79813534D01*
X212163557Y-79813533D01*
X212247221Y-79657011D01*
X212247222Y-79657009D01*
X212276552Y-79621271D01*
X212359814Y-79519814D01*
X212461271Y-79436552D01*
X212497009Y-79407222D01*
X212514913Y-79397652D01*
X212653533Y-79323557D01*
X212710147Y-79306384D01*
X212823373Y-79272037D01*
X212889557Y-79265519D01*
X212955740Y-79259000D01*
X213044260Y-79259000D01*
X213110443Y-79265519D01*
X213110443Y-79265519D01*
G37*
G36*
X213110442Y-76725518D02*
X213176627Y-76732037D01*
X213289853Y-76766384D01*
X213346467Y-76783557D01*
X213420956Y-76823373D01*
X213502991Y-76867222D01*
X213538729Y-76896552D01*
X213640186Y-76979814D01*
X213723448Y-77081271D01*
X213752778Y-77117009D01*
X213752779Y-77117011D01*
X213836443Y-77273533D01*
X213836443Y-77273534D01*
X213887963Y-77443373D01*
X213905359Y-77620000D01*
X213887963Y-77796627D01*
X213856302Y-77901000D01*
X213836443Y-77966467D01*
X213762348Y-78105087D01*
X213752778Y-78122991D01*
X213723448Y-78158729D01*
X213640186Y-78260186D01*
X213538729Y-78343448D01*
X213502991Y-78372778D01*
X213502989Y-78372779D01*
X213346467Y-78456443D01*
X213289853Y-78473616D01*
X213176627Y-78507963D01*
X213110443Y-78514481D01*
X213044260Y-78521000D01*
X212955740Y-78521000D01*
X212889557Y-78514481D01*
X212823373Y-78507963D01*
X212710147Y-78473616D01*
X212653533Y-78456443D01*
X212497011Y-78372779D01*
X212497009Y-78372778D01*
X212461271Y-78343448D01*
X212359814Y-78260186D01*
X212276552Y-78158729D01*
X212247222Y-78122991D01*
X212237652Y-78105087D01*
X212163557Y-77966467D01*
X212143698Y-77901000D01*
X212112037Y-77796627D01*
X212094641Y-77620000D01*
X212112037Y-77443373D01*
X212163557Y-77273534D01*
X212163557Y-77273533D01*
X212247221Y-77117011D01*
X212247222Y-77117009D01*
X212276552Y-77081271D01*
X212359814Y-76979814D01*
X212461271Y-76896552D01*
X212497009Y-76867222D01*
X212579044Y-76823373D01*
X212653533Y-76783557D01*
X212710147Y-76766384D01*
X212823373Y-76732037D01*
X212889558Y-76725518D01*
X212955740Y-76719000D01*
X213044260Y-76719000D01*
X213110442Y-76725518D01*
X213110442Y-76725518D01*
G37*
G36*
X256760443Y-76105519D02*
X256826627Y-76112037D01*
X256939853Y-76146384D01*
X256996467Y-76163557D01*
X257135087Y-76237652D01*
X257152991Y-76247222D01*
X257188729Y-76276552D01*
X257290186Y-76359814D01*
X257373448Y-76461271D01*
X257402778Y-76497009D01*
X257402779Y-76497011D01*
X257486443Y-76653533D01*
X257486443Y-76653534D01*
X257537963Y-76823373D01*
X257555359Y-77000000D01*
X257537963Y-77176627D01*
X257508567Y-77273533D01*
X257486443Y-77346467D01*
X257434645Y-77443373D01*
X257402778Y-77502991D01*
X257373448Y-77538729D01*
X257290186Y-77640186D01*
X257188729Y-77723448D01*
X257152991Y-77752778D01*
X257152989Y-77752779D01*
X256996467Y-77836443D01*
X256939853Y-77853616D01*
X256826627Y-77887963D01*
X256760442Y-77894482D01*
X256694260Y-77901000D01*
X256305740Y-77901000D01*
X256239558Y-77894482D01*
X256173373Y-77887963D01*
X256060147Y-77853616D01*
X256003533Y-77836443D01*
X255847011Y-77752779D01*
X255847009Y-77752778D01*
X255811271Y-77723448D01*
X255709814Y-77640186D01*
X255626552Y-77538729D01*
X255597222Y-77502991D01*
X255565355Y-77443373D01*
X255513557Y-77346467D01*
X255491433Y-77273533D01*
X255462037Y-77176627D01*
X255444641Y-77000000D01*
X255462037Y-76823373D01*
X255513557Y-76653534D01*
X255513557Y-76653533D01*
X255597221Y-76497011D01*
X255597222Y-76497009D01*
X255626552Y-76461271D01*
X255709814Y-76359814D01*
X255811271Y-76276552D01*
X255847009Y-76247222D01*
X255864913Y-76237652D01*
X256003533Y-76163557D01*
X256060147Y-76146384D01*
X256173373Y-76112037D01*
X256239557Y-76105519D01*
X256305740Y-76099000D01*
X256694260Y-76099000D01*
X256760443Y-76105519D01*
X256760443Y-76105519D01*
G37*
G36*
X227375256Y-73391298D02*
X227481579Y-73412447D01*
X227782042Y-73536903D01*
X228048852Y-73715180D01*
X228052454Y-73717587D01*
X228282413Y-73947546D01*
X228282415Y-73947549D01*
X228461976Y-74216280D01*
X228463098Y-74217960D01*
X228587553Y-74518422D01*
X228630342Y-74733533D01*
X228651000Y-74837391D01*
X228651000Y-75162609D01*
X228587553Y-75481579D01*
X228463097Y-75782042D01*
X228421672Y-75844038D01*
X228282413Y-76052454D01*
X228052454Y-76282413D01*
X228052451Y-76282415D01*
X227782042Y-76463097D01*
X227481579Y-76587553D01*
X227375256Y-76608702D01*
X227162611Y-76651000D01*
X226837389Y-76651000D01*
X226624744Y-76608702D01*
X226518421Y-76587553D01*
X226217958Y-76463097D01*
X225947549Y-76282415D01*
X225947546Y-76282413D01*
X225717587Y-76052454D01*
X225578328Y-75844038D01*
X225536903Y-75782042D01*
X225412447Y-75481579D01*
X225349000Y-75162609D01*
X225349000Y-74837391D01*
X225369659Y-74733533D01*
X225412447Y-74518422D01*
X225536902Y-74217960D01*
X225538025Y-74216280D01*
X225717585Y-73947549D01*
X225717587Y-73947546D01*
X225947546Y-73717587D01*
X225951148Y-73715180D01*
X226217958Y-73536903D01*
X226518421Y-73412447D01*
X226624744Y-73391298D01*
X226837389Y-73349000D01*
X227162611Y-73349000D01*
X227375256Y-73391298D01*
X227375256Y-73391298D01*
G37*
G36*
X233835734Y-73843232D02*
X234045202Y-73929996D01*
X234233723Y-74055962D01*
X234394038Y-74216277D01*
X234520004Y-74404798D01*
X234606768Y-74614266D01*
X234651000Y-74836635D01*
X234651000Y-75063365D01*
X234606768Y-75285734D01*
X234520004Y-75495202D01*
X234394038Y-75683723D01*
X234233723Y-75844038D01*
X234045202Y-75970004D01*
X233835734Y-76056768D01*
X233613365Y-76101000D01*
X233386635Y-76101000D01*
X233164266Y-76056768D01*
X232954798Y-75970004D01*
X232766277Y-75844038D01*
X232605962Y-75683723D01*
X232479996Y-75495202D01*
X232393232Y-75285734D01*
X232349000Y-75063365D01*
X232349000Y-74836635D01*
X232393232Y-74614266D01*
X232479996Y-74404798D01*
X232605962Y-74216277D01*
X232766277Y-74055962D01*
X232954798Y-73929996D01*
X233164266Y-73843232D01*
X233386635Y-73799000D01*
X233613365Y-73799000D01*
X233835734Y-73843232D01*
X233835734Y-73843232D01*
G37*
G36*
X213110442Y-74185518D02*
X213176627Y-74192037D01*
X213289853Y-74226384D01*
X213346467Y-74243557D01*
X213485087Y-74317652D01*
X213502991Y-74327222D01*
X213538729Y-74356552D01*
X213640186Y-74439814D01*
X213704696Y-74518421D01*
X213752778Y-74577009D01*
X213752779Y-74577011D01*
X213836443Y-74733533D01*
X213836443Y-74733534D01*
X213887963Y-74903373D01*
X213905359Y-75080000D01*
X213887963Y-75256627D01*
X213853616Y-75369853D01*
X213836443Y-75426467D01*
X213799703Y-75495202D01*
X213752778Y-75582991D01*
X213723448Y-75618729D01*
X213640186Y-75720186D01*
X213564813Y-75782042D01*
X213502991Y-75832778D01*
X213502989Y-75832779D01*
X213346467Y-75916443D01*
X213289853Y-75933616D01*
X213176627Y-75967963D01*
X213110442Y-75974482D01*
X213044260Y-75981000D01*
X212955740Y-75981000D01*
X212889558Y-75974482D01*
X212823373Y-75967963D01*
X212710147Y-75933616D01*
X212653533Y-75916443D01*
X212497011Y-75832779D01*
X212497009Y-75832778D01*
X212435187Y-75782042D01*
X212359814Y-75720186D01*
X212276552Y-75618729D01*
X212247222Y-75582991D01*
X212200297Y-75495202D01*
X212163557Y-75426467D01*
X212146384Y-75369853D01*
X212112037Y-75256627D01*
X212094641Y-75080000D01*
X212112037Y-74903373D01*
X212163557Y-74733534D01*
X212163557Y-74733533D01*
X212247221Y-74577011D01*
X212247222Y-74577009D01*
X212295304Y-74518421D01*
X212359814Y-74439814D01*
X212461271Y-74356552D01*
X212497009Y-74327222D01*
X212514913Y-74317652D01*
X212653533Y-74243557D01*
X212710147Y-74226384D01*
X212823373Y-74192037D01*
X212889558Y-74185518D01*
X212955740Y-74179000D01*
X213044260Y-74179000D01*
X213110442Y-74185518D01*
X213110442Y-74185518D01*
G37*
G36*
X213110442Y-71645518D02*
X213176627Y-71652037D01*
X213289853Y-71686384D01*
X213346467Y-71703557D01*
X213485087Y-71777652D01*
X213502991Y-71787222D01*
X213538729Y-71816552D01*
X213640186Y-71899814D01*
X213722405Y-72000000D01*
X213752778Y-72037009D01*
X213752779Y-72037011D01*
X213836443Y-72193533D01*
X213836443Y-72193534D01*
X213887963Y-72363373D01*
X213905359Y-72540000D01*
X213887963Y-72716627D01*
X213876996Y-72752779D01*
X213836443Y-72886467D01*
X213762348Y-73025087D01*
X213752778Y-73042991D01*
X213723448Y-73078729D01*
X213640186Y-73180186D01*
X213538729Y-73263448D01*
X213502991Y-73292778D01*
X213502989Y-73292779D01*
X213346467Y-73376443D01*
X213289853Y-73393616D01*
X213176627Y-73427963D01*
X213110442Y-73434482D01*
X213044260Y-73441000D01*
X212955740Y-73441000D01*
X212889558Y-73434482D01*
X212823373Y-73427963D01*
X212710147Y-73393616D01*
X212653533Y-73376443D01*
X212497011Y-73292779D01*
X212497009Y-73292778D01*
X212461271Y-73263448D01*
X212359814Y-73180186D01*
X212276552Y-73078729D01*
X212247222Y-73042991D01*
X212237652Y-73025087D01*
X212163557Y-72886467D01*
X212123004Y-72752779D01*
X212112037Y-72716627D01*
X212094641Y-72540000D01*
X212112037Y-72363373D01*
X212163557Y-72193534D01*
X212163557Y-72193533D01*
X212247221Y-72037011D01*
X212247222Y-72037009D01*
X212277595Y-72000000D01*
X212359814Y-71899814D01*
X212461271Y-71816552D01*
X212497009Y-71787222D01*
X212514913Y-71777652D01*
X212653533Y-71703557D01*
X212710147Y-71686384D01*
X212823373Y-71652037D01*
X212889558Y-71645518D01*
X212955740Y-71639000D01*
X213044260Y-71639000D01*
X213110442Y-71645518D01*
X213110442Y-71645518D01*
G37*
G36*
X256760443Y-71105519D02*
X256826627Y-71112037D01*
X256939853Y-71146384D01*
X256996467Y-71163557D01*
X257135087Y-71237652D01*
X257152991Y-71247222D01*
X257188729Y-71276552D01*
X257290186Y-71359814D01*
X257373448Y-71461271D01*
X257402778Y-71497009D01*
X257402779Y-71497011D01*
X257486443Y-71653533D01*
X257486443Y-71653534D01*
X257537963Y-71823373D01*
X257555359Y-72000000D01*
X257537963Y-72176627D01*
X257532834Y-72193534D01*
X257486443Y-72346467D01*
X257477406Y-72363373D01*
X257402778Y-72502991D01*
X257373448Y-72538729D01*
X257290186Y-72640186D01*
X257197043Y-72716625D01*
X257152991Y-72752778D01*
X257152989Y-72752779D01*
X256996467Y-72836443D01*
X256939853Y-72853616D01*
X256826627Y-72887963D01*
X256760443Y-72894481D01*
X256694260Y-72901000D01*
X256305740Y-72901000D01*
X256239557Y-72894481D01*
X256173373Y-72887963D01*
X256060147Y-72853616D01*
X256003533Y-72836443D01*
X255847011Y-72752779D01*
X255847009Y-72752778D01*
X255802957Y-72716625D01*
X255709814Y-72640186D01*
X255626552Y-72538729D01*
X255597222Y-72502991D01*
X255522594Y-72363373D01*
X255513557Y-72346467D01*
X255467166Y-72193534D01*
X255462037Y-72176627D01*
X255444641Y-72000000D01*
X255462037Y-71823373D01*
X255513557Y-71653534D01*
X255513557Y-71653533D01*
X255597221Y-71497011D01*
X255597222Y-71497009D01*
X255626552Y-71461271D01*
X255709814Y-71359814D01*
X255811271Y-71276552D01*
X255847009Y-71247222D01*
X255864913Y-71237652D01*
X256003533Y-71163557D01*
X256060147Y-71146384D01*
X256173373Y-71112037D01*
X256239557Y-71105519D01*
X256305740Y-71099000D01*
X256694260Y-71099000D01*
X256760443Y-71105519D01*
X256760443Y-71105519D01*
G37*
G36*
X213901000Y-70901000D02*
X212099000Y-70901000D01*
X212099000Y-69099000D01*
X213901000Y-69099000D01*
X213901000Y-70901000D01*
X213901000Y-70901000D01*
G37*
G36*
X235835734Y-67843232D02*
X236045202Y-67929996D01*
X236233723Y-68055962D01*
X236394038Y-68216277D01*
X236520004Y-68404798D01*
X236606768Y-68614266D01*
X236651000Y-68836635D01*
X236651000Y-69063365D01*
X236606768Y-69285734D01*
X236520004Y-69495202D01*
X236394038Y-69683723D01*
X236233723Y-69844038D01*
X236045202Y-69970004D01*
X235835734Y-70056768D01*
X235613365Y-70101000D01*
X235386635Y-70101000D01*
X235164266Y-70056768D01*
X234954798Y-69970004D01*
X234766277Y-69844038D01*
X234605962Y-69683723D01*
X234479996Y-69495202D01*
X234393232Y-69285734D01*
X234349000Y-69063365D01*
X234349000Y-68836635D01*
X234393232Y-68614266D01*
X234479996Y-68404798D01*
X234605962Y-68216277D01*
X234766277Y-68055962D01*
X234954798Y-67929996D01*
X235164266Y-67843232D01*
X235386635Y-67799000D01*
X235613365Y-67799000D01*
X235835734Y-67843232D01*
X235835734Y-67843232D01*
G37*
G36*
X248035734Y-67843232D02*
X248245202Y-67929996D01*
X248433723Y-68055962D01*
X248594038Y-68216277D01*
X248720004Y-68404798D01*
X248806768Y-68614266D01*
X248851000Y-68836635D01*
X248851000Y-69063365D01*
X248806768Y-69285734D01*
X248720004Y-69495202D01*
X248594038Y-69683723D01*
X248433723Y-69844038D01*
X248245202Y-69970004D01*
X248035734Y-70056768D01*
X247813365Y-70101000D01*
X247586635Y-70101000D01*
X247364266Y-70056768D01*
X247154798Y-69970004D01*
X246966277Y-69844038D01*
X246805962Y-69683723D01*
X246679996Y-69495202D01*
X246593232Y-69285734D01*
X246549000Y-69063365D01*
X246549000Y-68836635D01*
X246593232Y-68614266D01*
X246679996Y-68404798D01*
X246805962Y-68216277D01*
X246966277Y-68055962D01*
X247154798Y-67929996D01*
X247364266Y-67843232D01*
X247586635Y-67799000D01*
X247813365Y-67799000D01*
X248035734Y-67843232D01*
X248035734Y-67843232D01*
G37*
M02*
