G04 #@! TF.GenerationSoftware,KiCad,Pcbnew,5.0.2+dfsg1-1~bpo9+1*
G04 #@! TF.CreationDate,2019-02-03T14:49:37+01:00*
G04 #@! TF.ProjectId,rollershutter-light-control,726f6c6c-6572-4736-9875-747465722d6c,rev?*
G04 #@! TF.SameCoordinates,Original*
G04 #@! TF.FileFunction,Profile,NP*
%FSLAX46Y46*%
G04 Gerber Fmt 4.6, Leading zero omitted, Abs format (unit mm)*
G04 Created by KiCad (PCBNEW 5.0.2+dfsg1-1~bpo9+1) date Sun 03 Feb 2019 02:49:37 PM CET*
%MOMM*%
%LPD*%
G01*
G04 APERTURE LIST*
%ADD10C,0.150000*%
G04 APERTURE END LIST*
D10*
G36*
X239250000Y-70750000D02*
X230500000Y-70750000D01*
X230500000Y-73000000D01*
X239250000Y-73000000D01*
X239250000Y-70750000D01*
G37*
X239250000Y-70750000D02*
X230500000Y-70750000D01*
X230500000Y-73000000D01*
X239250000Y-73000000D01*
X239250000Y-70750000D01*
G36*
X239250000Y-77000000D02*
X230500000Y-77000000D01*
X230500000Y-79250000D01*
X239250000Y-79250000D01*
X239250000Y-77000000D01*
G37*
X239250000Y-77000000D02*
X230500000Y-77000000D01*
X230500000Y-79250000D01*
X239250000Y-79250000D01*
X239250000Y-77000000D01*
G36*
X244500000Y-85250000D02*
X244500000Y-76750000D01*
X246000000Y-76750000D01*
X246000000Y-85250000D01*
X244500000Y-85250000D01*
G37*
X244500000Y-85250000D02*
X244500000Y-76750000D01*
X246000000Y-76750000D01*
X246000000Y-85250000D01*
X244500000Y-85250000D01*
G36*
X241250000Y-132750000D02*
X241250000Y-125500000D01*
X242750000Y-125500000D01*
X242750000Y-132750000D01*
X241250000Y-132750000D01*
G37*
X241250000Y-132750000D02*
X241250000Y-125500000D01*
X242750000Y-125500000D01*
X242750000Y-132750000D01*
X241250000Y-132750000D01*
G36*
X247000000Y-101500000D02*
X246250000Y-101500000D01*
X246250000Y-111000000D01*
X247000000Y-111000000D01*
X247000000Y-101500000D01*
G37*
X247000000Y-101500000D02*
X246250000Y-101500000D01*
X246250000Y-111000000D01*
X247000000Y-111000000D01*
X247000000Y-101500000D01*
X210500000Y-66750000D02*
X215750000Y-66750000D01*
X210500000Y-69000000D02*
X210500000Y-66750000D01*
X210500000Y-74250000D02*
X210500000Y-69000000D01*
X210500000Y-80000000D02*
X210500000Y-74250000D01*
X210500000Y-86750000D02*
X210500000Y-80000000D01*
X210500000Y-120750000D02*
X210500000Y-86750000D01*
X210500000Y-136500000D02*
X210500000Y-120750000D01*
X210500000Y-142750000D02*
X210500000Y-136500000D01*
X210500000Y-150750000D02*
X210500000Y-142500000D01*
X249750000Y-66750000D02*
X215250000Y-66750000D01*
X249750000Y-66750000D02*
X262000000Y-66750000D01*
X231000000Y-150750000D02*
X210500000Y-150750000D01*
X262000000Y-150750000D02*
X231000000Y-150750000D01*
X262000000Y-150750000D02*
X262000000Y-128250000D01*
X262000000Y-129500000D02*
X262000000Y-66750000D01*
M02*
