G04 #@! TF.GenerationSoftware,KiCad,Pcbnew,5.0.2+dfsg1-1~bpo9+1*
G04 #@! TF.CreationDate,2019-02-03T14:49:37+01:00*
G04 #@! TF.ProjectId,rollershutter-light-control,726f6c6c-6572-4736-9875-747465722d6c,rev?*
G04 #@! TF.SameCoordinates,Original*
G04 #@! TF.FileFunction,Legend,Top*
G04 #@! TF.FilePolarity,Positive*
%FSLAX46Y46*%
G04 Gerber Fmt 4.6, Leading zero omitted, Abs format (unit mm)*
G04 Created by KiCad (PCBNEW 5.0.2+dfsg1-1~bpo9+1) date Sun 03 Feb 2019 02:49:37 PM CET*
%MOMM*%
%LPD*%
G01*
G04 APERTURE LIST*
%ADD10C,0.200000*%
%ADD11C,0.100000*%
%ADD12C,0.150000*%
%ADD13C,0.120000*%
G04 APERTURE END LIST*
D10*
X214714285Y-80607142D02*
X214928571Y-80678571D01*
X215285714Y-80678571D01*
X215428571Y-80607142D01*
X215500000Y-80535714D01*
X215571428Y-80392857D01*
X215571428Y-80250000D01*
X215500000Y-80107142D01*
X215428571Y-80035714D01*
X215285714Y-79964285D01*
X215000000Y-79892857D01*
X214857142Y-79821428D01*
X214785714Y-79750000D01*
X214714285Y-79607142D01*
X214714285Y-79464285D01*
X214785714Y-79321428D01*
X214857142Y-79250000D01*
X215000000Y-79178571D01*
X215357142Y-79178571D01*
X215571428Y-79250000D01*
X216214285Y-80678571D02*
X216214285Y-79178571D01*
X216214285Y-79892857D02*
X217071428Y-79892857D01*
X217071428Y-80678571D02*
X217071428Y-79178571D01*
X217785714Y-80678571D02*
X217785714Y-79178571D01*
X219000000Y-79892857D02*
X218500000Y-79892857D01*
X218500000Y-80678571D02*
X218500000Y-79178571D01*
X219214285Y-79178571D01*
X219571428Y-79178571D02*
X220428571Y-79178571D01*
X220000000Y-80678571D02*
X220000000Y-79178571D01*
X214714285Y-82857142D02*
X214928571Y-82928571D01*
X215285714Y-82928571D01*
X215428571Y-82857142D01*
X215500000Y-82785714D01*
X215571428Y-82642857D01*
X215571428Y-82500000D01*
X215500000Y-82357142D01*
X215428571Y-82285714D01*
X215285714Y-82214285D01*
X215000000Y-82142857D01*
X214857142Y-82071428D01*
X214785714Y-82000000D01*
X214714285Y-81857142D01*
X214714285Y-81714285D01*
X214785714Y-81571428D01*
X214857142Y-81500000D01*
X215000000Y-81428571D01*
X215357142Y-81428571D01*
X215571428Y-81500000D01*
X216000000Y-81428571D02*
X216857142Y-81428571D01*
X216428571Y-82928571D02*
X216428571Y-81428571D01*
X217642857Y-81428571D02*
X217928571Y-81428571D01*
X218071428Y-81500000D01*
X218214285Y-81642857D01*
X218285714Y-81928571D01*
X218285714Y-82428571D01*
X218214285Y-82714285D01*
X218071428Y-82857142D01*
X217928571Y-82928571D01*
X217642857Y-82928571D01*
X217500000Y-82857142D01*
X217357142Y-82714285D01*
X217285714Y-82428571D01*
X217285714Y-81928571D01*
X217357142Y-81642857D01*
X217500000Y-81500000D01*
X217642857Y-81428571D01*
X219785714Y-82928571D02*
X219285714Y-82214285D01*
X218928571Y-82928571D02*
X218928571Y-81428571D01*
X219500000Y-81428571D01*
X219642857Y-81500000D01*
X219714285Y-81571428D01*
X219785714Y-81714285D01*
X219785714Y-81928571D01*
X219714285Y-82071428D01*
X219642857Y-82142857D01*
X219500000Y-82214285D01*
X218928571Y-82214285D01*
X214428571Y-86821428D02*
X214428571Y-86535714D01*
X214500000Y-86392857D01*
X214642857Y-86250000D01*
X214928571Y-86178571D01*
X215428571Y-86178571D01*
X215714285Y-86250000D01*
X215857142Y-86392857D01*
X215928571Y-86535714D01*
X215928571Y-86821428D01*
X215857142Y-86964285D01*
X215714285Y-87107142D01*
X215428571Y-87178571D01*
X214928571Y-87178571D01*
X214642857Y-87107142D01*
X214500000Y-86964285D01*
X214428571Y-86821428D01*
X215142857Y-85535714D02*
X215142857Y-85035714D01*
X215928571Y-84821428D02*
X215928571Y-85535714D01*
X214428571Y-85535714D01*
X214428571Y-84821428D01*
X215785714Y-78178571D02*
X215785714Y-76678571D01*
X215785714Y-78107142D02*
X215642857Y-78178571D01*
X215357142Y-78178571D01*
X215214285Y-78107142D01*
X215142857Y-78035714D01*
X215071428Y-77892857D01*
X215071428Y-77464285D01*
X215142857Y-77321428D01*
X215214285Y-77250000D01*
X215357142Y-77178571D01*
X215642857Y-77178571D01*
X215785714Y-77250000D01*
X217142857Y-78178571D02*
X217142857Y-77392857D01*
X217071428Y-77250000D01*
X216928571Y-77178571D01*
X216642857Y-77178571D01*
X216500000Y-77250000D01*
X217142857Y-78107142D02*
X217000000Y-78178571D01*
X216642857Y-78178571D01*
X216500000Y-78107142D01*
X216428571Y-77964285D01*
X216428571Y-77821428D01*
X216500000Y-77678571D01*
X216642857Y-77607142D01*
X217000000Y-77607142D01*
X217142857Y-77535714D01*
X217642857Y-77178571D02*
X218214285Y-77178571D01*
X217857142Y-76678571D02*
X217857142Y-77964285D01*
X217928571Y-78107142D01*
X218071428Y-78178571D01*
X218214285Y-78178571D01*
X219357142Y-78178571D02*
X219357142Y-77392857D01*
X219285714Y-77250000D01*
X219142857Y-77178571D01*
X218857142Y-77178571D01*
X218714285Y-77250000D01*
X219357142Y-78107142D02*
X219214285Y-78178571D01*
X218857142Y-78178571D01*
X218714285Y-78107142D01*
X218642857Y-77964285D01*
X218642857Y-77821428D01*
X218714285Y-77678571D01*
X218857142Y-77607142D01*
X219214285Y-77607142D01*
X219357142Y-77535714D01*
X215857142Y-74250000D02*
X215714285Y-74178571D01*
X215500000Y-74178571D01*
X215285714Y-74250000D01*
X215142857Y-74392857D01*
X215071428Y-74535714D01*
X215000000Y-74821428D01*
X215000000Y-75035714D01*
X215071428Y-75321428D01*
X215142857Y-75464285D01*
X215285714Y-75607142D01*
X215500000Y-75678571D01*
X215642857Y-75678571D01*
X215857142Y-75607142D01*
X215928571Y-75535714D01*
X215928571Y-75035714D01*
X215642857Y-75035714D01*
X216571428Y-75678571D02*
X216571428Y-74178571D01*
X217428571Y-75678571D01*
X217428571Y-74178571D01*
X218142857Y-75678571D02*
X218142857Y-74178571D01*
X218500000Y-74178571D01*
X218714285Y-74250000D01*
X218857142Y-74392857D01*
X218928571Y-74535714D01*
X219000000Y-74821428D01*
X219000000Y-75035714D01*
X218928571Y-75321428D01*
X218857142Y-75464285D01*
X218714285Y-75607142D01*
X218500000Y-75678571D01*
X218142857Y-75678571D01*
X215964285Y-71678571D02*
X215250000Y-71678571D01*
X215178571Y-72392857D01*
X215250000Y-72321428D01*
X215392857Y-72250000D01*
X215750000Y-72250000D01*
X215892857Y-72321428D01*
X215964285Y-72392857D01*
X216035714Y-72535714D01*
X216035714Y-72892857D01*
X215964285Y-73035714D01*
X215892857Y-73107142D01*
X215750000Y-73178571D01*
X215392857Y-73178571D01*
X215250000Y-73107142D01*
X215178571Y-73035714D01*
X216464285Y-71678571D02*
X216964285Y-73178571D01*
X217464285Y-71678571D01*
X215035714Y-69178571D02*
X215964285Y-69178571D01*
X215464285Y-69750000D01*
X215678571Y-69750000D01*
X215821428Y-69821428D01*
X215892857Y-69892857D01*
X215964285Y-70035714D01*
X215964285Y-70392857D01*
X215892857Y-70535714D01*
X215821428Y-70607142D01*
X215678571Y-70678571D01*
X215250000Y-70678571D01*
X215107142Y-70607142D01*
X215035714Y-70535714D01*
X216607142Y-70535714D02*
X216678571Y-70607142D01*
X216607142Y-70678571D01*
X216535714Y-70607142D01*
X216607142Y-70535714D01*
X216607142Y-70678571D01*
X217178571Y-69178571D02*
X218107142Y-69178571D01*
X217607142Y-69750000D01*
X217821428Y-69750000D01*
X217964285Y-69821428D01*
X218035714Y-69892857D01*
X218107142Y-70035714D01*
X218107142Y-70392857D01*
X218035714Y-70535714D01*
X217964285Y-70607142D01*
X217821428Y-70678571D01*
X217392857Y-70678571D01*
X217250000Y-70607142D01*
X217178571Y-70535714D01*
X218535714Y-69178571D02*
X219035714Y-70678571D01*
X219535714Y-69178571D01*
D11*
G04 #@! TO.C,K4*
X232000000Y-74250000D02*
X232000000Y-67250000D01*
X232000000Y-82250000D02*
X232000000Y-74250000D01*
X232000000Y-67050000D02*
X232000000Y-67250000D01*
X250500000Y-82650000D02*
X249400000Y-82650000D01*
X232000000Y-67050000D02*
X250500000Y-67050000D01*
X232000000Y-82250000D02*
X232000000Y-82650000D01*
X249500000Y-82650000D02*
X232000000Y-82650000D01*
X250700000Y-82650000D02*
X250400000Y-82650000D01*
X250500000Y-67050000D02*
X250700000Y-67050000D01*
X250900000Y-82650000D02*
X250700000Y-82650000D01*
X250900000Y-67050000D02*
X250900000Y-82650000D01*
X250700000Y-67050000D02*
X250900000Y-67050000D01*
D12*
G04 #@! TO.C,PS1*
X247750000Y-126500000D02*
X247750000Y-150500000D01*
X216750000Y-126500000D02*
X247750000Y-126500000D01*
X210750000Y-126500000D02*
X216750000Y-126500000D01*
X210750000Y-150500000D02*
X210750000Y-126500000D01*
X247750000Y-150500000D02*
X210750000Y-150500000D01*
D13*
G04 #@! TO.C,J2*
X211670000Y-68670000D02*
X213000000Y-68670000D01*
X211670000Y-70000000D02*
X211670000Y-68670000D01*
X211670000Y-71270000D02*
X214330000Y-71270000D01*
X214330000Y-71270000D02*
X214330000Y-86570000D01*
X211670000Y-71270000D02*
X211670000Y-86570000D01*
X211670000Y-86570000D02*
X214330000Y-86570000D01*
D12*
G04 #@! TO.C,U2*
X216175000Y-95450000D02*
X214800000Y-95450000D01*
X216175000Y-105575000D02*
X220325000Y-105575000D01*
X216175000Y-95425000D02*
X220325000Y-95425000D01*
X216175000Y-105575000D02*
X216175000Y-105470000D01*
X220325000Y-105575000D02*
X220325000Y-105470000D01*
X220325000Y-95425000D02*
X220325000Y-95530000D01*
X216175000Y-95425000D02*
X216175000Y-95450000D01*
G04 #@! TO.C,U1*
X221300000Y-112675000D02*
X221300000Y-111300000D01*
X211175000Y-112675000D02*
X211175000Y-116825000D01*
X221325000Y-112675000D02*
X221325000Y-116825000D01*
X211175000Y-112675000D02*
X211280000Y-112675000D01*
X211175000Y-116825000D02*
X211280000Y-116825000D01*
X221325000Y-116825000D02*
X221220000Y-116825000D01*
X221325000Y-112675000D02*
X221300000Y-112675000D01*
D13*
G04 #@! TO.C,F1*
X236750000Y-124800000D02*
X236750000Y-122000000D01*
X236750000Y-124800000D02*
X259250000Y-124800000D01*
X236750000Y-115200000D02*
X259250000Y-115200000D01*
X236750000Y-118000000D02*
X236750000Y-115200000D01*
X259250000Y-118000000D02*
X259250000Y-115200000D01*
X259250000Y-124800000D02*
X259250000Y-122000000D01*
D11*
G04 #@! TO.C,K3*
X223000000Y-103750000D02*
X223000000Y-101750000D01*
X252000000Y-103750000D02*
X223000000Y-103750000D01*
X252000000Y-93750000D02*
X252000000Y-103750000D01*
X223000000Y-93750000D02*
X252000000Y-93750000D01*
X223000000Y-93750000D02*
X223000000Y-101750000D01*
G04 #@! TO.C,K2*
X223000000Y-114250000D02*
X223000000Y-112250000D01*
X252000000Y-114250000D02*
X223000000Y-114250000D01*
X252000000Y-104250000D02*
X252000000Y-114250000D01*
X223000000Y-104250000D02*
X252000000Y-104250000D01*
X223000000Y-104250000D02*
X223000000Y-112250000D01*
G04 #@! TO.C,K1*
X216500000Y-93250000D02*
X216500000Y-91250000D01*
X245500000Y-93250000D02*
X216500000Y-93250000D01*
X245500000Y-83250000D02*
X245500000Y-93250000D01*
X216500000Y-83250000D02*
X245500000Y-83250000D01*
X216500000Y-83250000D02*
X216500000Y-91250000D01*
D12*
G04 #@! TO.C,RV1*
X248750000Y-138500000D02*
X252650000Y-138500000D01*
X248750000Y-126500000D02*
X252650000Y-126500000D01*
X248750000Y-138500000D02*
X248750000Y-126500000D01*
X252650000Y-138500000D02*
X252650000Y-126500000D01*
D11*
G04 #@! TO.C,J4*
X261050000Y-103850000D02*
X261050000Y-98850000D01*
X261050000Y-106350000D02*
X261050000Y-103350000D01*
X257550000Y-106350000D02*
X261050000Y-106350000D01*
X261050000Y-96350000D02*
X261050000Y-98850000D01*
X257550000Y-96350000D02*
X261050000Y-96350000D01*
X253050000Y-103350000D02*
X253050000Y-96350000D01*
X253050000Y-102850000D02*
X253050000Y-106350000D01*
X253050000Y-96350000D02*
X257550000Y-96350000D01*
X253050000Y-106350000D02*
X257800000Y-106350000D01*
G04 #@! TO.C,J3*
X260000000Y-77000000D02*
X260000000Y-72000000D01*
X260000000Y-79500000D02*
X260000000Y-76500000D01*
X256500000Y-79500000D02*
X260000000Y-79500000D01*
X260000000Y-69500000D02*
X260000000Y-72000000D01*
X256500000Y-69500000D02*
X260000000Y-69500000D01*
X252000000Y-76500000D02*
X252000000Y-69500000D01*
X252000000Y-76000000D02*
X252000000Y-79500000D01*
X252000000Y-69500000D02*
X256500000Y-69500000D01*
X252000000Y-79500000D02*
X256750000Y-79500000D01*
G04 #@! TO.C,J1*
X261400000Y-148000000D02*
X261400000Y-143000000D01*
X261400000Y-150500000D02*
X261400000Y-147500000D01*
X257900000Y-150500000D02*
X261400000Y-150500000D01*
X261400000Y-140500000D02*
X261400000Y-143000000D01*
X261400000Y-125500000D02*
X257900000Y-125500000D01*
X261400000Y-140500000D02*
X261400000Y-125500000D01*
X253400000Y-138000000D02*
X253400000Y-125500000D01*
X253400000Y-125500000D02*
X257900000Y-125500000D01*
X253400000Y-138000000D02*
X253400000Y-150500000D01*
X253400000Y-150500000D02*
X258400000Y-150500000D01*
G04 #@! TO.C,K4*
D12*
X230011904Y-69202380D02*
X230011904Y-68202380D01*
X230583333Y-69202380D02*
X230154761Y-68630952D01*
X230583333Y-68202380D02*
X230011904Y-68773809D01*
X231440476Y-68535714D02*
X231440476Y-69202380D01*
X231202380Y-68154761D02*
X230964285Y-68869047D01*
X231583333Y-68869047D01*
G04 #@! TO.C,PS1*
X249202380Y-149964285D02*
X248202380Y-149964285D01*
X248202380Y-149583333D01*
X248250000Y-149488095D01*
X248297619Y-149440476D01*
X248392857Y-149392857D01*
X248535714Y-149392857D01*
X248630952Y-149440476D01*
X248678571Y-149488095D01*
X248726190Y-149583333D01*
X248726190Y-149964285D01*
X249154761Y-149011904D02*
X249202380Y-148869047D01*
X249202380Y-148630952D01*
X249154761Y-148535714D01*
X249107142Y-148488095D01*
X249011904Y-148440476D01*
X248916666Y-148440476D01*
X248821428Y-148488095D01*
X248773809Y-148535714D01*
X248726190Y-148630952D01*
X248678571Y-148821428D01*
X248630952Y-148916666D01*
X248583333Y-148964285D01*
X248488095Y-149011904D01*
X248392857Y-149011904D01*
X248297619Y-148964285D01*
X248250000Y-148916666D01*
X248202380Y-148821428D01*
X248202380Y-148583333D01*
X248250000Y-148440476D01*
X249202380Y-147488095D02*
X249202380Y-148059523D01*
X249202380Y-147773809D02*
X248202380Y-147773809D01*
X248345238Y-147869047D01*
X248440476Y-147964285D01*
X248488095Y-148059523D01*
G04 #@! TO.C,J2*
X211416666Y-66952380D02*
X211416666Y-67666666D01*
X211369047Y-67809523D01*
X211273809Y-67904761D01*
X211130952Y-67952380D01*
X211035714Y-67952380D01*
X211845238Y-67047619D02*
X211892857Y-67000000D01*
X211988095Y-66952380D01*
X212226190Y-66952380D01*
X212321428Y-67000000D01*
X212369047Y-67047619D01*
X212416666Y-67142857D01*
X212416666Y-67238095D01*
X212369047Y-67380952D01*
X211797619Y-67952380D01*
X212416666Y-67952380D01*
G04 #@! TO.C,U2*
X214738095Y-93952380D02*
X214738095Y-94761904D01*
X214785714Y-94857142D01*
X214833333Y-94904761D01*
X214928571Y-94952380D01*
X215119047Y-94952380D01*
X215214285Y-94904761D01*
X215261904Y-94857142D01*
X215309523Y-94761904D01*
X215309523Y-93952380D01*
X215738095Y-94047619D02*
X215785714Y-94000000D01*
X215880952Y-93952380D01*
X216119047Y-93952380D01*
X216214285Y-94000000D01*
X216261904Y-94047619D01*
X216309523Y-94142857D01*
X216309523Y-94238095D01*
X216261904Y-94380952D01*
X215690476Y-94952380D01*
X216309523Y-94952380D01*
G04 #@! TO.C,U1*
X221952380Y-112761904D02*
X222761904Y-112761904D01*
X222857142Y-112714285D01*
X222904761Y-112666666D01*
X222952380Y-112571428D01*
X222952380Y-112380952D01*
X222904761Y-112285714D01*
X222857142Y-112238095D01*
X222761904Y-112190476D01*
X221952380Y-112190476D01*
X222952380Y-111190476D02*
X222952380Y-111761904D01*
X222952380Y-111476190D02*
X221952380Y-111476190D01*
X222095238Y-111571428D01*
X222190476Y-111666666D01*
X222238095Y-111761904D01*
G04 #@! TO.C,F1*
X260166666Y-116178571D02*
X259833333Y-116178571D01*
X259833333Y-116702380D02*
X259833333Y-115702380D01*
X260309523Y-115702380D01*
X261214285Y-116702380D02*
X260642857Y-116702380D01*
X260928571Y-116702380D02*
X260928571Y-115702380D01*
X260833333Y-115845238D01*
X260738095Y-115940476D01*
X260642857Y-115988095D01*
G04 #@! TO.C,K3*
X246261904Y-93452380D02*
X246261904Y-92452380D01*
X246833333Y-93452380D02*
X246404761Y-92880952D01*
X246833333Y-92452380D02*
X246261904Y-93023809D01*
X247166666Y-92452380D02*
X247785714Y-92452380D01*
X247452380Y-92833333D01*
X247595238Y-92833333D01*
X247690476Y-92880952D01*
X247738095Y-92928571D01*
X247785714Y-93023809D01*
X247785714Y-93261904D01*
X247738095Y-93357142D01*
X247690476Y-93404761D01*
X247595238Y-93452380D01*
X247309523Y-93452380D01*
X247214285Y-93404761D01*
X247166666Y-93357142D01*
G04 #@! TO.C,K2*
X231511904Y-115452380D02*
X231511904Y-114452380D01*
X232083333Y-115452380D02*
X231654761Y-114880952D01*
X232083333Y-114452380D02*
X231511904Y-115023809D01*
X232464285Y-114547619D02*
X232511904Y-114500000D01*
X232607142Y-114452380D01*
X232845238Y-114452380D01*
X232940476Y-114500000D01*
X232988095Y-114547619D01*
X233035714Y-114642857D01*
X233035714Y-114738095D01*
X232988095Y-114880952D01*
X232416666Y-115452380D01*
X233035714Y-115452380D01*
G04 #@! TO.C,K1*
X226011904Y-82702380D02*
X226011904Y-81702380D01*
X226583333Y-82702380D02*
X226154761Y-82130952D01*
X226583333Y-81702380D02*
X226011904Y-82273809D01*
X227535714Y-82702380D02*
X226964285Y-82702380D01*
X227250000Y-82702380D02*
X227250000Y-81702380D01*
X227154761Y-81845238D01*
X227059523Y-81940476D01*
X226964285Y-81988095D01*
G04 #@! TO.C,RV1*
X249154761Y-140202380D02*
X248821428Y-139726190D01*
X248583333Y-140202380D02*
X248583333Y-139202380D01*
X248964285Y-139202380D01*
X249059523Y-139250000D01*
X249107142Y-139297619D01*
X249154761Y-139392857D01*
X249154761Y-139535714D01*
X249107142Y-139630952D01*
X249059523Y-139678571D01*
X248964285Y-139726190D01*
X248583333Y-139726190D01*
X249440476Y-139202380D02*
X249773809Y-140202380D01*
X250107142Y-139202380D01*
X250964285Y-140202380D02*
X250392857Y-140202380D01*
X250678571Y-140202380D02*
X250678571Y-139202380D01*
X250583333Y-139345238D01*
X250488095Y-139440476D01*
X250392857Y-139488095D01*
G04 #@! TO.C,J4*
X259666666Y-106952380D02*
X259666666Y-107666666D01*
X259619047Y-107809523D01*
X259523809Y-107904761D01*
X259380952Y-107952380D01*
X259285714Y-107952380D01*
X260571428Y-107285714D02*
X260571428Y-107952380D01*
X260333333Y-106904761D02*
X260095238Y-107619047D01*
X260714285Y-107619047D01*
G04 #@! TO.C,J3*
X257166666Y-67952380D02*
X257166666Y-68666666D01*
X257119047Y-68809523D01*
X257023809Y-68904761D01*
X256880952Y-68952380D01*
X256785714Y-68952380D01*
X257547619Y-67952380D02*
X258166666Y-67952380D01*
X257833333Y-68333333D01*
X257976190Y-68333333D01*
X258071428Y-68380952D01*
X258119047Y-68428571D01*
X258166666Y-68523809D01*
X258166666Y-68761904D01*
X258119047Y-68857142D01*
X258071428Y-68904761D01*
X257976190Y-68952380D01*
X257690476Y-68952380D01*
X257595238Y-68904761D01*
X257547619Y-68857142D01*
G04 #@! TO.C,J1*
X258566666Y-144952380D02*
X258566666Y-145666666D01*
X258519047Y-145809523D01*
X258423809Y-145904761D01*
X258280952Y-145952380D01*
X258185714Y-145952380D01*
X259566666Y-145952380D02*
X258995238Y-145952380D01*
X259280952Y-145952380D02*
X259280952Y-144952380D01*
X259185714Y-145095238D01*
X259090476Y-145190476D01*
X258995238Y-145238095D01*
G04 #@! TD*
M02*
